<?xml version="1.0" encoding="UTF-8" standalone="no"?>
<svg
   xmlns:dc="http://purl.org/dc/elements/1.1/"
   xmlns:cc="http://creativecommons.org/ns#"
   xmlns:rdf="http://www.w3.org/1999/02/22-rdf-syntax-ns#"
   xmlns:svg="http://www.w3.org/2000/svg"
   xmlns="http://www.w3.org/2000/svg"
   xmlns:sodipodi="http://sodipodi.sourceforge.net/DTD/sodipodi-0.dtd"
   xmlns:inkscape="http://www.inkscape.org/namespaces/inkscape"
   version="1.1"
   x="0px"
   y="0px"
   width="80"
   height="80"
   viewBox="5 -6.8 80 108"
   enable-background="new 0 0 100 68"
   xml:space="preserve"
   id="svg4226"
   inkscape:version="0.48.5 r10040"
   sodipodi:docname="noun_55039_cc.svg"><metadata
   id="metadata4414"><rdf:RDF><cc:Work
       rdf:about=""><dc:format>image/svg+xml</dc:format><dc:type
         rdf:resource="http://purl.org/dc/dcmitype/StillImage" /><dc:title></dc:title></cc:Work></rdf:RDF></metadata><defs
   id="defs4412" /><sodipodi:namedview
   pagecolor="#ffffff"
   bordercolor="#666666"
   borderopacity="1"
   objecttolerance="10"
   gridtolerance="10"
   guidetolerance="10"
   inkscape:pageopacity="0"
   inkscape:pageshadow="2"
   inkscape:window-width="1366"
   inkscape:window-height="705"
   id="namedview4410"
   showgrid="false"
   inkscape:zoom="2.86"
   inkscape:cx="50"
   inkscape:cy="48.326325"
   inkscape:window-x="-8"
   inkscape:window-y="-8"
   inkscape:window-maximized="1"
   inkscape:current-layer="svg4226" />
<g
   id="Layer_1"
   display="none"
   style="display:none"
   transform="translate(0,16.2)">
	<g
   display="inline"
   id="g4229"
   style="display:inline">
		<path
   d="m 26.867,13.091 c -1.104,0 -1.997,-0.903 -1.992,-2.008 0,0 0.959,-15.959 2.064,-15.954 1.105,0.004 1.936,15.971 1.936,15.971 -0.003,0.77 -0.453,1.991 -2.008,1.991 z"
   id="path4231"
   inkscape:connector-curvature="0"
   style="fill:#000000" />
	</g>
	<path
   display="inline"
   d="m 33.343,-12.208 c 1.613,-1.62 2.612,-3.853 2.612,-6.314 0,-4.938 -4.018,-8.955 -8.955,-8.955 -4.938,0 -8.955,4.017 -8.955,8.955 0,2.461 0.999,4.694 2.612,6.314 -3.37,0.92 -6.45,2.55 -9.063,4.725 l -1.92,-1.987 1.438,-1.39 c 0.794,-0.768 0.815,-2.034 0.048,-2.828 -0.767,-0.794 -2.033,-0.815 -2.828,-0.048 l -5.752,5.56 c -0.795,0.767 -0.877,2.097 -0.049,2.828 1.006,0.886 2.44,0.423 2.828,0.048 l 1.438,-1.39 1.946,2.013 C 5.094,-0.449 2.879,5.05 2.879,11.061 c 0,13.3 10.821,24.121 24.121,24.121 13.301,0 24.121,-10.821 24.121,-24.121 0,-11.106 -7.546,-20.477 -17.778,-23.269 z m -13.298,-6.314 c 0,-3.835 3.12,-6.955 6.955,-6.955 3.835,0 6.955,3.12 6.955,6.955 0,2.404 -1.227,4.527 -3.087,5.776 -0.615,-0.1 -1.238,-0.172 -1.868,-0.225 v -2.695 h 2 c 1.104,0 2,-0.896 2,-2 0,-1.104 -0.896,-2 -2,-2 h -8 c -1.104,0 -2,0.896 -2,2 0,1.104 0.896,2 2,2 h 2 v 2.695 c -0.63,0.052 -1.253,0.125 -1.868,0.225 -1.86,-1.25 -3.087,-3.372 -3.087,-5.776 z M 27,31.182 C 15.905,31.182 6.879,22.156 6.879,11.061 6.879,-0.034 15.905,-9.061 27,-9.061 c 11.095,0 20.121,9.026 20.121,20.122 0,11.095 -9.026,20.121 -20.121,20.121 z"
   id="path4233"
   inkscape:connector-curvature="0"
   style="fill:#000000;display:inline" />
</g>
<g
   id="Layer_2"
   display="none"
   style="display:none"
   transform="translate(0,16.2)">
	<path
   display="inline"
   d="m 50.936,-12.952 c -0.821,-0.854 -1.705,-1.287 -2.627,-1.287 -0.447,0 -0.854,0.104 -1.207,0.253 0.088,-0.485 0.088,-1.027 -0.109,-1.56 -0.363,-0.98 -1.286,-1.672 -2.743,-2.056 -1.021,-0.271 -1.887,-0.04 -2.521,0.659 -1.384,1.522 -1.248,4.972 -1.185,5.882 -0.955,1.094 -6.533,7.487 -6.765,7.755 -0.221,0.256 -0.454,0.836 -0.256,1.27 0.194,0.426 0.684,0.554 1.298,0.227 2.519,-1.348 3.276,-1.453 3.405,-1.486 0.144,0.104 0.285,0.612 0.15,2.437 -0.051,0.681 -0.065,0.886 0.145,1.084 0.073,0.069 0.165,0.114 0.264,0.13 0.026,0.004 0.105,0.01 0.132,0.01 0.704,0 2.397,-1.027 3.093,-1.469 0.055,-0.034 0.102,-0.079 0.14,-0.131 l 4.176,-5.847 c 0.165,0.021 0.332,0.032 0.499,0.032 2.018,0 3.732,-1.548 4.384,-3.078 0.475,-1.121 0.376,-2.15 -0.273,-2.825 z"
   id="path4236"
   inkscape:connector-curvature="0"
   style="fill:#000000;display:inline" />
	<path
   display="inline"
   d="M 42.485,4.714 C 42.425,4.471 42.203,4.311 41.945,4.337 41.928,4.339 40.334,4.514 39.263,4.514 39.142,4.514 39.04,4.512 38.955,4.509 39.435,3.781 40.604,2.304 41.657,1.058 41.804,0.883 41.815,0.63 41.681,0.444 41.548,0.257 41.304,0.187 41.092,0.27 c -0.634,0.249 -2.431,0.89 -3.206,0.903 -0.079,-0.958 -0.26,-3.08 -0.26,-3.08 -0.015,-0.178 -0.124,-0.335 -0.286,-0.411 -0.161,-0.075 -0.352,-0.059 -0.499,0.044 -0.998,0.7 -2.68,1.687 -3.302,1.702 -0.348,-0.25 -1.056,-2.035 -1.499,-3.547 -0.065,-0.223 -0.263,-0.373 -0.511,-0.358 -0.233,0.015 -0.425,0.189 -0.463,0.42 -0.156,0.974 -0.657,2.675 -1.331,3.091 l -0.25,0.155 c -7.159,4.47 -13.427,7.324 -17.424,8.931 -8.805,3.54 -8.665,17.306 -7.412,21 1.143,3.367 4.1,5.222 8.327,5.222 4.156,0 9.045,-1.864 13.078,-4.987 4.686,-3.628 8.315,-10.888 10.496,-20.994 0.057,-0.26 0.092,-0.431 0.08,-0.431 0,0 0,0 -0.001,0 0.317,-0.406 3.129,-1.681 5.552,-2.63 0.235,-0.092 0.365,-0.342 0.304,-0.586 z"
   id="path4238"
   inkscape:connector-curvature="0"
   style="fill:#000000;display:inline" />
</g>
<g
   id="Layer_3"
   display="none"
   style="display:none"
   transform="translate(0,16.2)">
	<path
   display="inline"
   d="m 51.367,-14.667 c 0.924,2 0.172,8.326 -0.952,12.088 -1.03,3.452 -2.703,6.896 -5.149,9.563 -2.175,2.373 -4.894,4.2 -7.909,5.311 -3.064,1.119 -6.318,1.57 -9.57,1.519 -0.122,-1.07 -0.212,-2.13 -0.296,-3.205 3.699,-0.257 7.402,-1.131 10.574,-3.118 3.017,-1.889 5.327,-4.65 6.836,-7.86 0.979,-2.08 1.647,-4.547 2.062,-6.806 0.444,-2.416 0.579,-4.493 1.259,-7.493 h -2.203 c 0.575,3 0.501,4.211 0.191,6.191 -0.295,1.885 -0.751,3.878 -1.435,5.661 C 43.469,0.588 41.301,3.729 38.213,5.731 35.004,7.81 31.121,8.584 27.343,8.455 27.314,7.954 27.227,5.962 27.224,5.837 27.215,5.586 27.196,5.596 27.446,5.575 c 0.933,-0.079 1.862,-0.199 2.779,-0.393 1.792,-0.379 3.543,-1.036 5.08,-2.044 3.186,-2.092 4.963,-5.517 5.824,-9.145 0.323,-1.361 0.521,-2.979 0.658,-4.37 0.135,-1.36 0.287,-2.293 0.802,-4.293 h -2.204 c 0.732,2 0.521,4.165 0.202,6.104 -0.304,1.845 -0.775,3.779 -1.587,5.467 -0.746,1.549 -1.769,3.008 -3.115,4.087 -1.363,1.093 -2.984,1.819 -4.69,2.168 -1.324,0.271 -2.684,0.352 -4.03,0.281 -0.016,-0.983 -0.022,-2.429 -0.021,-3.413 0,0 2.017,-0.102 2.47,-0.224 1.779,-0.479 3.408,-1.433 4.461,-2.974 1.063,-1.559 1.472,-3.462 1.677,-5.309 0.107,-0.96 0.153,-2.159 0.191,-3.124 0.036,-0.969 0.161,-2.062 0.66,-3.062 H 34.4 c 0.766,2 0.608,3.134 0.491,4.594 -0.118,1.489 -0.351,3.106 -0.928,4.492 -0.529,1.273 -1.435,2.416 -2.688,3.021 -1.28,0.616 -2.723,0.76 -4.122,0.654 0.007,-1.431 0.014,-2.857 0.021,-4.288 0.007,-1.531 -0.028,-3.145 0.015,-4.676 0.039,-1.403 0.454,-2.796 1.421,-3.796 h -3.933 c 0.597,1 1.038,1.495 1.246,2.352 0.18,0.742 0.188,1.551 0.176,2.311 -0.008,0.484 0,0.989 0.002,1.475 0.01,1.896 0.019,3.802 0.027,5.698 0.002,0.318 0.004,0.631 0.005,0.951 -1.393,0.074 -2.796,-0.076 -4.052,-0.714 -1.235,-0.628 -2.081,-1.697 -2.593,-2.97 -0.545,-1.358 -0.768,-3.057 -0.884,-4.508 -0.116,-1.46 -0.272,-2.593 0.494,-4.593 h -2.202 c 0.475,1 0.619,2.014 0.657,2.939 0.039,0.967 0.081,2.05 0.185,3.012 0.2,1.852 0.592,3.818 1.639,5.392 1,1.504 2.541,2.498 4.25,3.011 0.425,0.127 2.515,0.516 2.515,0.329 0,-0.187 -0.005,2.403 -0.022,3.443 -3.635,0.132 -7.304,-0.873 -9.798,-3.645 -2.472,-2.746 -3.399,-6.929 -3.679,-10.52 -0.098,-1.252 0.008,-1.962 0.468,-3.962 H 10.91 c 0.748,2 0.737,4.172 1.024,6.132 0.276,1.882 0.736,3.88 1.482,5.633 0.725,1.703 1.743,3.344 3.089,4.623 1.341,1.274 2.98,2.237 4.721,2.85 1.197,0.421 2.443,0.704 3.7,0.869 0.304,0.04 0.607,0.082 0.913,0.11 0.246,0.024 0.23,0.021 0.223,0.268 C 26.055,6.021 25.981,7.807 25.941,8.497 22.131,8.577 18.195,7.764 15,5.605 11.959,3.551 9.855,0.41 8.605,-3 7.972,-4.729 7.542,-6.777 7.268,-8.596 c -0.294,-1.941 -0.353,-4.07 0.21,-6.07 H 5.279 c 0.556,3 0.748,4.183 1.047,6.172 0.287,1.914 0.723,3.927 1.37,5.754 1.198,3.383 3.141,6.573 5.939,8.858 2.03,1.658 4.41,2.857 6.929,3.564 1.369,0.385 2.773,0.653 4.187,0.808 0.349,0.038 0.696,0.079 1.045,0.106 -0.029,0.371 -0.209,2.54 -0.299,3.248 C 21.673,13.87 17.876,13.217 14.389,11.609 10.979,10.038 8.138,7.492 6.104,4.341 4.44,1.767 3.326,-1.355 2.611,-4.328 1.821,-7.609 1.337,-10.667 2.129,-14.667 h -2.2 c 0.46,3 0.716,4.259 0.979,6.28 0.258,1.973 0.621,4.053 1.167,5.967 1.001,3.506 2.573,6.93 4.895,9.76 2.16,2.637 4.932,4.735 8.038,6.127 3.226,1.447 6.726,2.172 10.236,2.444 -0.114,0.946 -0.511,4.531 -0.971,5.126 -0.551,0.713 -1.492,0.722 -2.324,1.028 -0.761,0.281 -1.522,0.267 -2.309,0.267 h 14.003 c -0.772,0 -1.522,0.027 -2.271,-0.248 -0.823,-0.305 -1.73,-0.519 -2.304,-1.198 -0.5,-0.594 -0.91,-4.08 -1.027,-5.053 3.864,-0.271 7.729,-1.018 11.224,-2.735 3.384,-1.663 6.267,-4.123 8.409,-7.225 1.886,-2.728 3.155,-6.066 3.983,-9.266 0.943,-3.63 1.068,-7.275 1.913,-11.275 h -2.203 c 0.431,2.001 0,10e-4 0,10e-4 0.431,2 0,0 0,0 z"
   id="path4241"
   inkscape:connector-curvature="0"
   style="display:inline" />
</g>
<g
   id="Layer_4"
   display="none"
   style="display:none"
   transform="translate(0,16.2)">
	<path
   display="inline"
   d="m 39.08,14.51 -0.114,-0.176 h 7.742 l -9.526,-14 h 4.477 l -13.91,-20.255 1.278,0.915 -0.413,-2.365 1.742,-1.694 -2.408,-0.333 -1.083,-2.245 -1.082,2.266 -2.407,0.364 1.741,1.751 -0.413,2.478 0.914,-0.938 -13.775,20.055 h 4.461 l -9.511,14 h 7.722 L 14.421,14.486 2.09,27.333 H 23 v 7 h 6 v -7 H 51.41 L 39.08,14.51 z m 2.387,-4.929 c 0.657,0 1.189,0.533 1.189,1.19 0,0.656 -0.532,1.19 -1.189,1.19 -0.657,0 -1.189,-0.534 -1.189,-1.19 -10e-4,-0.658 0.532,-1.19 1.189,-1.19 z M 9.51,25.254 c -0.673,0 -1.219,-0.546 -1.219,-1.219 0,-0.672 0.545,-1.219 1.219,-1.219 0.674,0 1.219,0.547 1.219,1.219 0,0.673 -0.546,1.219 -1.219,1.219 z m 5.166,-13.961 c -0.641,0 -1.161,-0.52 -1.161,-1.161 0,-0.642 0.52,-1.161 1.161,-1.161 0.642,0 1.161,0.52 1.161,1.161 0,0.641 -0.519,1.161 -1.161,1.161 z m 7.953,-22.147 c 0.737,0 1.335,0.599 1.335,1.336 0,0.737 -0.598,1.335 -1.335,1.335 -0.737,0 -1.335,-0.598 -1.335,-1.335 0,-0.737 0.598,-1.336 1.335,-1.336 z m -0.517,34.406 c -0.9,0 -1.63,-0.729 -1.63,-1.63 0,-0.901 0.73,-1.631 1.63,-1.631 0.901,0 1.631,0.73 1.631,1.631 0,0.901 -0.73,1.63 -1.631,1.63 z M 23.645,1.511 c -0.561,0 -1.016,-0.455 -1.016,-1.016 0,-0.562 0.455,-1.016 1.016,-1.016 0.561,0 1.016,0.455 1.016,1.016 0,0.561 -0.455,1.016 -1.016,1.016 z m 1.521,-20.94 0.325,-1.951 -1.381,-1.388 1.909,-0.285 0.848,-1.771 0.848,1.771 1.909,0.285 -1.382,1.388 0.325,1.951 -1.7,-0.92 -1.701,0.92 z m 3.209,25.788 c -0.576,0 -1.044,-0.468 -1.044,-1.044 0,-0.578 0.468,-1.045 1.044,-1.045 0.578,0 1.046,0.468 1.046,1.045 0,0.576 -0.468,1.044 -1.046,1.044 z m 0.915,-17.241 c -0.697,0 -1.263,-0.565 -1.263,-1.262 0,-0.698 0.565,-1.263 1.263,-1.263 0.698,0 1.263,0.565 1.263,1.263 0,0.696 -0.566,1.262 -1.263,1.262 z m 4.107,28.996 c -0.914,0 -1.654,-0.741 -1.654,-1.654 0,-0.915 0.74,-1.654 1.654,-1.654 0.914,0 1.654,0.74 1.654,1.654 10e-4,0.914 -0.739,1.654 -1.654,1.654 z m 1.655,-20.337 c -0.802,0 -1.451,-0.649 -1.451,-1.451 0,-0.802 0.649,-1.452 1.451,-1.452 0.802,0 1.451,0.649 1.451,1.452 0,0.802 -0.649,1.451 -1.451,1.451 z m 5.225,26.52 c -0.674,0 -1.221,-0.546 -1.221,-1.219 0,-0.674 0.547,-1.219 1.221,-1.219 0.673,0 1.218,0.545 1.218,1.219 0,0.672 -0.545,1.219 -1.218,1.219 z"
   id="path4244"
   inkscape:connector-curvature="0"
   style="display:inline" />
</g>
<g
   id="Layer_4_copy"
   display="none"
   style="display:none"
   transform="translate(0,16.2)">
	<rect
   x="23"
   y="29.333"
   display="inline"
   width="6"
   height="9"
   id="rect4247"
   style="display:inline" />
	<g
   display="inline"
   id="g4249"
   style="display:inline">
		<path
   d="m 39.269,16.299 c -0.239,-0.401 -0.053,-0.966 0.415,-0.966 h 4.5 c 0.468,0 0.656,-0.094 0.42,-0.497 L 35.69,-0.134 c -0.237,-0.403 -0.048,-0.532 0.42,-0.532 h 2.33 c 0.468,0 0.655,-0.412 0.417,-0.814 l -5.69,-9.646 c -0.238,-0.402 -0.629,-1.082 -0.867,-1.484 l -3.433,-5.802 c -0.238,-0.402 -0.772,-0.915 -1.187,-1.132 l -0.666,-0.353 c -0.414,-0.218 -1.092,-0.219 -1.506,-0.001 l -0.919,0.483 c -0.414,0.217 -0.948,0.725 -1.187,1.127 l -3.353,5.659 c -0.238,0.402 -0.629,1.061 -0.867,1.463 l -5.69,9.688 c -0.238,0.402 -0.051,0.814 0.417,0.814 h 2.328 c 0.468,0 0.657,0.247 0.42,0.65 l -8.91,14.891 c -0.237,0.403 -0.048,0.456 0.42,0.456 h 4.5 c 0.468,0 0.654,0.564 0.415,0.966 L 4.022,31.54 c -0.24,0.401 -0.053,0.793 0.415,0.793 h 20.889 c 0.468,0 1.233,0 1.701,0 h 20.89 c 0.468,0 0.654,-0.392 0.415,-0.793 L 39.269,16.299 z"
   id="path4251"
   inkscape:connector-curvature="0" />
	</g>
	<path
   display="inline"
   d="m 26.129,-29.166 c 0.125,-0.253 0.329,-0.252 0.454,0 l 1.153,2.339 c 0.125,0.252 0.455,0.493 0.734,0.533 l 2.583,0.376 c 0.278,0.041 0.342,0.235 0.14,0.431 l -1.869,1.821 c -0.203,0.196 -0.328,0.585 -0.281,0.863 l 0.441,2.571 c 0.048,0.278 -0.117,0.398 -0.367,0.267 l -2.307,-1.214 c -0.25,-0.131 -0.658,-0.131 -0.908,0 l -2.309,1.214 c -0.25,0.131 -0.415,0.011 -0.367,-0.267 l 0.441,-2.571 c 0.048,-0.278 -0.079,-0.667 -0.28,-0.863 l -1.869,-1.821 c -0.202,-0.196 -0.139,-0.391 0.141,-0.431 l 2.582,-0.376 c 0.279,-0.041 0.609,-0.281 0.734,-0.533 l 1.154,-2.339 z"
   id="path4253"
   inkscape:connector-curvature="0"
   style="display:inline" />
	<circle
   display="inline"
   cx="19.134001"
   cy="8.2189999"
   r="2.3710001"
   id="circle4255"
   sodipodi:cx="19.134001"
   sodipodi:cy="8.2189999"
   sodipodi:rx="2.3710001"
   sodipodi:ry="2.3710001"
   style="fill:#000000;display:inline"
   d="m 21.505001,8.2189999 c 0,1.3094671 -1.061533,2.3710001 -2.371,2.3710001 -1.309467,0 -2.371,-1.061533 -2.371,-2.3710001 0,-1.3094672 1.061533,-2.3710001 2.371,-2.3710001 1.309467,0 2.371,1.0615329 2.371,2.3710001 z" />
	<circle
   display="inline"
   cx="32.084999"
   cy="5.145"
   r="2.2620001"
   id="circle4257"
   sodipodi:cx="32.084999"
   sodipodi:cy="5.145"
   sodipodi:rx="2.2620001"
   sodipodi:ry="2.2620001"
   style="fill:#000000;display:inline"
   d="m 34.346999,5.145 c 0,1.2492681 -1.012732,2.2620001 -2.262,2.2620001 -1.249268,0 -2.262,-1.012732 -2.262,-2.2620001 0,-1.2492682 1.012732,-2.2620001 2.262,-2.2620001 1.249268,0 2.262,1.0127319 2.262,2.2620001 z" />
	<circle
   display="inline"
   cx="24.789"
   cy="-7.1129999"
   r="2.2620001"
   id="circle4259"
   sodipodi:cx="24.789"
   sodipodi:cy="-7.1129999"
   sodipodi:rx="2.2620001"
   sodipodi:ry="2.2620001"
   style="fill:#000000;display:inline"
   d="m 27.051,-7.1129999 c 0,1.2492681 -1.012732,2.2620001 -2.262,2.2620001 -1.249269,0 -2.262001,-1.012732 -2.262001,-2.2620001 0,-1.2492682 1.012732,-2.2620001 2.262001,-2.2620001 1.249268,0 2.262,1.0127319 2.262,2.2620001 z" />
	<circle
   display="inline"
   cx="35.112999"
   cy="17.731001"
   r="1.86"
   id="circle4261"
   sodipodi:cx="35.112999"
   sodipodi:cy="17.731001"
   sodipodi:rx="1.86"
   sodipodi:ry="1.86"
   style="fill:#000000;display:inline"
   d="m 36.972999,17.731001 c 0,1.02725 -0.83275,1.86 -1.86,1.86 -1.02725,0 -1.86,-0.83275 -1.86,-1.86 0,-1.02725 0.83275,-1.86 1.86,-1.86 1.02725,0 1.86,0.83275 1.86,1.86 z" />
	<circle
   display="inline"
   cx="25.393999"
   cy="22.346001"
   r="2.28"
   id="circle4263"
   sodipodi:cx="25.393999"
   sodipodi:cy="22.346001"
   sodipodi:rx="2.28"
   sodipodi:ry="2.28"
   style="fill:#000000;display:inline"
   d="m 27.673999,22.346001 c 0,1.259209 -1.020791,2.28 -2.28,2.28 -1.259209,0 -2.28,-1.020791 -2.28,-2.28 0,-1.25921 1.020791,-2.28 2.28,-2.28 1.259209,0 2.28,1.02079 2.28,2.28 z" />
	<circle
   display="inline"
   cx="13.917"
   cy="23.167"
   r="1.897"
   id="circle4265"
   sodipodi:cx="13.917"
   sodipodi:cy="23.167"
   sodipodi:rx="1.897"
   sodipodi:ry="1.897"
   style="fill:#000000;display:inline"
   d="m 15.814,23.167 c 0,1.047684 -0.849316,1.897 -1.897,1.897 -1.047684,0 -1.897,-0.849316 -1.897,-1.897 0,-1.047684 0.849316,-1.897 1.897,-1.897 1.047684,0 1.897,0.849316 1.897,1.897 z" />
</g>
<g
   id="Layer_6"
   display="none"
   style="display:none"
   transform="translate(0,16.2)">
	<g
   display="inline"
   id="g4268"
   style="display:inline">
		<g
   id="g4270">
			<path
   d="M 27,-4.667 H 12 v -16 h 15 v 16 z m -14,-1 h 13 v -14 H 13 v 14 z"
   id="path4272"
   inkscape:connector-curvature="0" />
		</g>
	</g>
	<g
   display="inline"
   id="g4274"
   style="display:inline">
		<g
   id="g4276">
			<g
   id="g4278">
				<path
   d="m 20.405,-11.528 c -1.842,0 -3.341,-1.499 -3.341,-3.341 0,-1.842 1.499,-3.341 3.341,-3.341 1.842,0 3.341,1.499 3.341,3.341 0,1.842 -1.499,3.341 -3.341,3.341 z m 0,-6.116 c -1.53,0 -2.774,1.245 -2.774,2.775 0,1.53 1.245,2.774 2.774,2.774 1.529,0 2.775,-1.245 2.775,-2.774 0,-1.529 -1.245,-2.775 -2.775,-2.775 z"
   id="path4280"
   inkscape:connector-curvature="0" />
			</g>
		</g>
		<g
   id="g4282">
			<g
   id="g4284">
				<path
   d="M 26.866,-4.667 H 13.927 l 0.008,-0.508 c 10e-4,-0.064 0.178,-6.461 6.47,-6.461 1.945,0 3.502,0.581 4.629,1.726 1.866,1.896 1.843,4.637 1.841,4.752 l -0.009,0.491 z m -11.889,-1 h 10.868 c -0.082,-0.796 -0.388,-2.392 -1.529,-3.549 -0.931,-0.943 -2.247,-1.421 -3.911,-1.421 -4.39,0.001 -5.258,3.605 -5.428,4.97 z"
   id="path4286"
   inkscape:connector-curvature="0" />
			</g>
		</g>
	</g>
	<g
   display="inline"
   id="g4288"
   style="display:inline">
		<g
   id="g4290">
			<rect
   x="30"
   y="-18.667"
   width="14"
   height="2"
   id="rect4292" />
		</g>
	</g>
	<g
   display="inline"
   id="g4294"
   style="display:inline">
		<g
   id="g4296">
			<rect
   x="30"
   y="-13.667"
   width="10"
   height="2"
   id="rect4298" />
		</g>
	</g>
	<g
   display="inline"
   id="g4300"
   style="display:inline">
		<g
   id="g4302">
			<rect
   x="12"
   y="1.3329999"
   width="5"
   height="2"
   id="rect4304" />
		</g>
	</g>
	<g
   display="inline"
   id="g4306"
   style="display:inline">
		<g
   id="g4308">
			<rect
   x="12"
   y="7.3330002"
   width="5"
   height="2"
   id="rect4310" />
		</g>
	</g>
	<g
   display="inline"
   id="g4312"
   style="display:inline">
		<g
   id="g4314">
			<rect
   x="12"
   y="13.333"
   width="5"
   height="2"
   id="rect4316" />
		</g>
	</g>
	<g
   display="inline"
   id="g4318"
   style="display:inline">
		<g
   id="g4320">
			<rect
   x="20"
   y="1.3329999"
   width="15"
   height="2"
   id="rect4322" />
		</g>
	</g>
	<g
   display="inline"
   id="g4324"
   style="display:inline">
		<g
   id="g4326">
			<rect
   x="20"
   y="7.3330002"
   width="20"
   height="2"
   id="rect4328" />
		</g>
	</g>
	<g
   display="inline"
   id="g4330"
   style="display:inline">
		<g
   id="g4332">
			<rect
   x="20"
   y="13.333"
   width="11"
   height="2"
   id="rect4334" />
		</g>
	</g>
	<line
   display="inline"
   x1="4"
   y1="-8.6669998"
   x2="4"
   y2="-8.6669998"
   id="line4336"
   style="fill:none;display:inline" />
	<line
   display="inline"
   x1="4"
   y1="-10.667"
   x2="4"
   y2="-10.667"
   id="line4338"
   style="fill:none;display:inline" />
	<line
   display="inline"
   x1="3"
   y1="-10.667"
   x2="2"
   y2="-10.667"
   id="line4340"
   style="fill:none;display:inline" />
	<line
   display="inline"
   x1="2"
   y1="-8.6669998"
   x2="3"
   y2="-8.6669998"
   id="line4342"
   style="fill:none;display:inline" />
	<path
   display="inline"
   d="M 3,-21.667 H 1 v 4 h 3.938 l 0,0 H 8 v -4 H 3 m 2,1 h 2 v 2 H 2 l 0,0 0,0 v -2 H 3.625 5"
   id="path4344"
   inkscape:connector-curvature="0"
   style="display:inline" />
	<path
   display="inline"
   d="M 4.938,-7.667 H 8 v -4 H 1 v 4 h 3.938 l 0,0 z m -2.938,-3 h 5 v 2 H 2"
   id="path4346"
   inkscape:connector-curvature="0"
   style="display:inline" />
	<path
   display="inline"
   d="M 4.938,2.333 H 8 v -4 H 1 v 4 h 3.938 l 0,0 z M 2,1.333 v -2 h 5 v 2 H 2 l 0,0 0,0 z"
   id="path4348"
   inkscape:connector-curvature="0"
   style="display:inline" />
	<path
   display="inline"
   d="M 4.938,12.333 H 8 v -4 H 1 v 4 h 3.938 l 0,0 z M 2,11.333 v -2 h 5 v 2 H 2 l 0,0 0,0 z"
   id="path4350"
   inkscape:connector-curvature="0"
   style="display:inline" />
	<path
   display="inline"
   d="M 4.938,22.333 H 8 v -4 H 1 v 4 h 3.938 l 0,0 z M 2,21.333 v -2 h 5 v 2 H 2 l 0,0 0,0 z"
   id="path4352"
   inkscape:connector-curvature="0"
   style="display:inline" />
	<line
   display="inline"
   stroke-miterlimit="10"
   x1="6.5"
   y1="-10.667"
   x2="6.5"
   y2="-17.667"
   id="line4354"
   style="fill:none;stroke:#000000;stroke-miterlimit:10;display:inline" />
	<line
   display="inline"
   stroke-miterlimit="10"
   x1="6.5"
   y1="-1.6670001"
   x2="6.5"
   y2="-7.6669998"
   id="line4356"
   style="fill:none;stroke:#000000;stroke-miterlimit:10;display:inline" />
	<line
   display="inline"
   stroke-miterlimit="10"
   x1="6.5"
   y1="8.3330002"
   x2="6.5"
   y2="2.3329999"
   id="line4358"
   style="fill:none;stroke:#000000;stroke-miterlimit:10;display:inline" />
	<line
   display="inline"
   stroke-miterlimit="10"
   x1="6.5"
   y1="19.333"
   x2="6.5"
   y2="11.333"
   id="line4360"
   style="fill:none;stroke:#000000;stroke-miterlimit:10;display:inline" />
	<polyline
   display="inline"
   stroke-miterlimit="10"
   points="6.5,-21.667 6.5,-28.167 50.5,-28.167    50.5,29.833 6.5,29.833 6.5,22.333  "
   id="polyline4362"
   style="fill:none;stroke:#000000;stroke-miterlimit:10;display:inline" />
	<polyline
   display="inline"
   stroke-miterlimit="10"
   points="2.5,22.333 2.5,29.833 6,29.833  "
   id="polyline4364"
   style="fill:none;stroke:#000000;stroke-miterlimit:10;display:inline" />
	<line
   display="inline"
   stroke-miterlimit="10"
   x1="2.5"
   y1="12.333"
   x2="2.5"
   y2="18.333"
   id="line4366"
   style="fill:none;stroke:#000000;stroke-miterlimit:10;display:inline" />
	<line
   display="inline"
   stroke-miterlimit="10"
   x1="2.5"
   y1="1.3329999"
   x2="2.5"
   y2="8.3330002"
   id="line4368"
   style="fill:none;stroke:#000000;stroke-miterlimit:10;display:inline" />
	<line
   display="inline"
   stroke-miterlimit="10"
   x1="2.5"
   y1="-7.6669998"
   x2="2.5"
   y2="-1.6670001"
   id="line4370"
   style="fill:none;stroke:#000000;stroke-miterlimit:10;display:inline" />
	<line
   display="inline"
   stroke-miterlimit="10"
   x1="2.5"
   y1="-17.667"
   x2="2.5"
   y2="-11.667"
   id="line4372"
   style="fill:none;stroke:#000000;stroke-miterlimit:10;display:inline" />
	<polyline
   display="inline"
   stroke-miterlimit="10"
   points="6,-28.167 2.5,-28.167 2.5,-21.667  "
   id="polyline4374"
   style="fill:none;stroke:#000000;stroke-miterlimit:10;display:inline" />
	<polyline
   display="inline"
   stroke-miterlimit="10"
   points="4.5,22.333 4.5,29.833 8,29.833  "
   id="polyline4376"
   style="fill:none;stroke:#000000;stroke-miterlimit:10;display:inline" />
	<line
   display="inline"
   stroke-miterlimit="10"
   x1="4.5"
   y1="12.333"
   x2="4.5"
   y2="18.333"
   id="line4378"
   style="fill:none;stroke:#000000;stroke-miterlimit:10;display:inline" />
	<line
   display="inline"
   stroke-miterlimit="10"
   x1="4.5"
   y1="1.3329999"
   x2="4.5"
   y2="8.3330002"
   id="line4380"
   style="fill:none;stroke:#000000;stroke-miterlimit:10;display:inline" />
	<line
   display="inline"
   stroke-miterlimit="10"
   x1="4.5"
   y1="-7.6669998"
   x2="4.5"
   y2="-1.6670001"
   id="line4382"
   style="fill:none;stroke:#000000;stroke-miterlimit:10;display:inline" />
	<line
   display="inline"
   stroke-miterlimit="10"
   x1="4.5"
   y1="-17.667"
   x2="4.5"
   y2="-11.667"
   id="line4384"
   style="fill:none;stroke:#000000;stroke-miterlimit:10;display:inline" />
	<polyline
   display="inline"
   stroke-miterlimit="10"
   points="8,-28.167 4.5,-28.167 4.5,-21.667  "
   id="polyline4386"
   style="fill:none;stroke:#000000;stroke-miterlimit:10;display:inline" />
</g>
<g
   id="Layer_7"
   display="none"
   style="display:none"
   transform="translate(0,16.2)">
	<g
   display="inline"
   id="g4389"
   style="display:inline">
		<g
   id="g4391">
			<path
   d="M 28.481,3.398 C 28.188,3.594 27.872,3.773 27.599,4.006 27.307,4.218 27.058,4.476 26.798,4.718 26.57,4.987 26.327,5.24 26.148,5.525 25.941,5.793 25.805,6.088 25.648,6.357 25.566,6.566 25.47,6.763 25.4,6.957 26.824,6.749 28.309,6.591 29.84,6.493 33.716,6.246 37.352,6.41 40.444,6.893 40.051,4.776 36.82,3.096 32.058,2.219 31.998,2.227 31.943,2.232 31.88,2.244 31.665,2.284 31.417,2.302 31.156,2.37 30.899,2.441 30.605,2.484 30.317,2.594 30.023,2.687 29.714,2.792 29.409,2.934 29.094,3.054 28.798,3.237 28.481,3.398 z"
   id="path4393"
   inkscape:connector-curvature="0" />
			<path
   d="M 24.784,7.05 C 24.786,7.04 24.788,7.03 24.791,7.02 24.843,6.726 24.977,6.43 25.084,6.106 25.233,5.801 25.37,5.463 25.577,5.155 25.761,4.828 26.008,4.533 26.244,4.222 26.512,3.937 26.773,3.637 27.08,3.384 27.368,3.108 27.701,2.891 28.014,2.656 28.348,2.457 28.667,2.237 29.005,2.083 29.171,1.994 29.336,1.916 29.501,1.845 27.107,1.574 24.444,1.483 21.636,1.608 21.502,1.654 21.371,1.701 21.234,1.75 21.083,1.819 20.928,1.889 20.771,1.96 20.454,2.096 20.152,2.289 19.839,2.473 19.539,2.678 19.233,2.884 18.96,3.131 18.813,3.246 18.677,3.37 18.553,3.506 18.428,3.64 18.286,3.761 18.174,3.904 c -0.114,0.141 -0.228,0.281 -0.341,0.42 -0.109,0.141 -0.196,0.293 -0.296,0.438 -0.2,0.284 -0.33,0.596 -0.474,0.879 -0.108,0.299 -0.239,0.575 -0.295,0.848 -0.079,0.27 -0.136,0.518 -0.157,0.738 -0.033,0.219 -0.064,0.412 -0.059,0.586 -0.009,0.34 -0.014,0.534 -0.014,0.534 -0.003,0.116 -0.096,0.21 -0.213,0.215 -0.121,0.004 -0.223,-0.091 -0.228,-0.212 0,0 -0.006,-0.194 -0.019,-0.534 C 16.063,7.651 16.082,7.433 16.105,7.183 16.114,6.929 16.161,6.654 16.228,6.358 16.272,6.055 16.394,5.749 16.497,5.415 16.633,5.096 16.76,4.746 16.959,4.421 17.055,4.257 17.144,4.084 17.254,3.921 17.369,3.762 17.484,3.6 17.601,3.437 17.718,3.272 17.862,3.131 17.992,2.976 18.121,2.819 18.263,2.673 18.415,2.538 18.7,2.248 19.021,2.001 19.34,1.757 16.942,1.96 14.673,2.306 12.602,2.762 12.533,2.791 12.462,2.816 12.39,2.848 12.073,2.968 11.776,3.149 11.459,3.31 11.165,3.505 10.847,3.683 10.572,3.916 10.278,4.127 10.027,4.385 9.766,4.628 9.538,4.896 9.294,5.149 9.112,5.435 8.903,5.704 8.763,6 8.608,6.269 8.496,6.556 8.353,6.82 8.292,7.084 8.215,7.345 8.143,7.584 8.121,7.799 8.088,8.014 8.047,8.197 8.053,8.368 8.042,8.699 8.036,8.888 8.036,8.888 8.033,8.986 7.954,9.067 7.854,9.07 7.75,9.074 7.663,8.993 7.659,8.889 7.659,8.889 7.654,8.7 7.642,8.368 7.626,8.208 7.653,7.993 7.673,7.75 7.684,7.502 7.744,7.24 7.808,6.951 7.857,6.658 7.991,6.363 8.096,6.04 8.244,5.736 8.378,5.4 8.585,5.092 8.767,4.766 9.013,4.471 9.248,4.16 9.476,3.915 9.705,3.663 9.956,3.435 4.699,4.976 1.296,7.276 1.415,9.641 c 0.044,0.531 0.256,1.004 0.612,1.427 1.286,1.418 4.51,2.061 8.828,2.229 1.312,-2.687 6.766,-5.114 13.929,-6.247 z"
   id="path4395"
   inkscape:connector-curvature="0" />
		</g>
		<path
   d="m 41.528,7.93 c 0.279,0.193 0.54,0.415 0.796,0.627 0.274,0.279 0.556,0.54 0.775,0.841 0.245,0.279 0.422,0.595 0.607,0.877 0.145,0.308 0.313,0.583 0.4,0.867 0.101,0.279 0.194,0.531 0.235,0.776 0.052,0.238 0.105,0.447 0.11,0.608 0.031,0.33 0.05,0.518 0.05,0.518 0.009,0.104 -0.067,0.196 -0.171,0.205 -0.1,0.009 -0.188,-0.061 -0.203,-0.158 0,0 -0.03,-0.186 -0.084,-0.514 C 44.027,12.407 43.964,12.23 43.904,12.021 43.856,11.812 43.752,11.583 43.643,11.333 43.548,11.079 43.372,10.836 43.226,10.565 43.036,10.318 42.86,10.042 42.619,9.801 42.402,9.541 42.129,9.321 41.867,9.084 41.577,8.877 41.294,8.652 40.976,8.48 40.673,8.283 40.336,8.147 40.019,7.992 39.685,7.873 39.366,7.73 39.037,7.652 38.961,7.629 38.89,7.613 38.816,7.593 36.706,7.404 34.409,7.35 32.005,7.454 c 0.347,0.202 0.696,0.406 1.016,0.656 0.169,0.115 0.328,0.242 0.478,0.381 0.147,0.138 0.31,0.26 0.444,0.409 0.137,0.146 0.271,0.292 0.405,0.435 0.131,0.147 0.241,0.308 0.356,0.458 0.239,0.296 0.41,0.629 0.586,0.927 0.145,0.319 0.303,0.607 0.387,0.902 0.104,0.285 0.186,0.551 0.228,0.801 0.053,0.246 0.101,0.458 0.106,0.625 0.032,0.339 0.049,0.532 0.049,0.532 0.012,0.121 -0.076,0.228 -0.197,0.239 -0.116,0.011 -0.22,-0.071 -0.24,-0.185 0,0 -0.027,-0.192 -0.079,-0.529 -0.017,-0.174 -0.072,-0.36 -0.135,-0.574 C 35.36,12.315 35.273,12.077 35.161,11.819 35.071,11.555 34.906,11.298 34.76,11.016 34.581,10.753 34.413,10.46 34.178,10.204 34.061,10.074 33.956,9.933 33.829,9.807 33.699,9.684 33.568,9.56 33.436,9.433 33.307,9.306 33.152,9.204 33.011,9.088 32.868,8.969 32.718,8.862 32.559,8.768 32.255,8.557 31.925,8.391 31.603,8.226 31.267,8.084 30.944,7.931 30.611,7.836 30.447,7.786 30.285,7.735 30.126,7.686 29.984,7.655 29.848,7.626 29.711,7.597 26.908,7.831 24.28,8.26 21.94,8.833 c 0.171,0.051 0.346,0.107 0.52,0.173 0.356,0.11 0.7,0.287 1.057,0.442 0.341,0.193 0.698,0.367 1.019,0.604 0.336,0.21 0.634,0.477 0.936,0.725 0.274,0.279 0.557,0.54 0.78,0.841 0.245,0.279 0.423,0.596 0.612,0.88 0.146,0.309 0.316,0.584 0.406,0.869 0.1,0.28 0.195,0.533 0.238,0.78 0.052,0.24 0.108,0.451 0.112,0.613 0.033,0.33 0.05,0.518 0.05,0.518 0.013,0.124 -0.079,0.235 -0.204,0.247 -0.118,0.012 -0.225,-0.073 -0.244,-0.19 0,0 -0.029,-0.188 -0.082,-0.514 C 27.124,14.65 27.061,14.475 27.002,14.269 26.956,14.061 26.853,13.834 26.746,13.585 26.653,13.332 26.479,13.09 26.333,12.82 26.146,12.573 25.972,12.298 25.732,12.059 25.517,11.799 25.244,11.578 24.983,11.342 24.696,11.134 24.415,10.91 24.099,10.737 23.799,10.54 23.461,10.403 23.145,10.246 22.812,10.126 22.494,9.983 22.165,9.904 21.846,9.802 21.526,9.737 21.224,9.682 20.922,9.61 20.626,9.604 20.362,9.566 20.095,9.532 19.848,9.545 19.631,9.533 19.567,9.529 19.51,9.532 19.45,9.532 c -4.814,1.541 -7.873,3.736 -7.728,5.987 0.238,3.731 9.043,4.076 19.831,3.385 10.79,-0.69 19.479,-2.152 19.239,-5.883 C 50.644,10.652 46.965,8.792 41.528,7.93 z"
   id="path4397"
   inkscape:connector-curvature="0" />
	</g>
</g>
<g
   id="Layer_8"
   transform="translate(-5.0796652,9.44975)">
	<path
   d="m 58.177,28.777 c 2.247,7.33 1.506,15.1 -2.089,21.876 -1.287,2.426 -2.89,4.616 -4.746,6.537 10.224,7.078 24.355,6.069 33.464,-3.037 C 95.052,43.903 101.251,21.09 91.005,10.84 80.758,0.592 57.94,6.792 47.695,17.042 c -1.385,1.384 -2.575,2.887 -3.585,4.472 1.25,-0.105 2.452,-0.173 3.555,-0.173 3.892,0 6.79,0.707 8.117,1.952 1.327,1.245 2.395,5.484 2.395,5.484 z M 76.466,14.575 c -0.846,0.842 -2.211,0.842 -3.055,0 -0.838,-0.843 -0.838,-2.21 0,-3.054 0.844,-0.844 2.209,-0.844 3.055,0 0.843,0.844 0.843,2.211 0,3.054 z m 4.462,-5.533 c -0.585,0.583 -1.529,0.583 -2.115,-10e-4 -0.586,-0.582 -0.586,-1.529 0,-2.114 0.586,-0.585 1.53,-0.584 2.115,0 0.583,0.584 0.583,1.531 0,2.115 z m 5.872,7.413 c -0.711,0.713 -1.869,0.713 -2.587,-0.002 -0.71,-0.712 -0.71,-1.869 0.004,-2.583 0.714,-0.713 1.872,-0.713 2.583,0 0.714,0.713 0.714,1.871 0,2.585 z"
   id="path4400"
   inkscape:connector-curvature="0"
   style="fill:#000000" />
	<path
   d="m 54.865,24.388 c -1.284,-1.074 -3.707,-1.619 -7.2,-1.619 -5.364,0 -12.745,1.32 -20.25,3.621 -12.854,3.941 -22.664,9.586 -23.857,13.727 0,0 -0.417,0.779 1.081,5.072 3.978,11.399 14.021,19.298 26.08,19.298 2.703,0 5.396,-0.405 8.006,-1.205 6.968,-2.136 12.686,-6.858 16.102,-13.298 3.416,-6.439 4.12,-13.823 1.984,-20.79 0,-10e-4 -1.096,-3.69 -1.946,-4.806 z m -27.031,3.367 c 7.375,-2.261 14.603,-3.558 19.831,-3.558 2.953,0 5.134,0.425 6.175,1.2 l 0.006,0.012 c 0.223,0.445 0.446,0.89 0.646,1.35 -0.468,3.038 -9.247,8.794 -22.977,13.005 -7.388,2.264 -14.628,3.562 -19.864,3.562 H 11.65 C 8.386,43.326 6.053,42.799 5.193,41.874 5.1,41.376 5.034,40.882 4.972,40.381 6.045,37.308 14.328,31.896 27.834,27.755 z"
   id="path4402"
   inkscape:connector-curvature="0"
   style="fill:#000000" />
	<path
   d="m 12.527,40.51 c -2.229,0 -3.396,-0.422 -3.674,-1.327 -0.975,-3.191 12.21,-8.154 19.318,-10.333 7.233,-2.219 14.174,-3.597 18.113,-3.597 2.227,0 3.394,0.42 3.673,1.324 0.977,3.195 -12.207,8.159 -19.315,10.337 -7.236,2.218 -14.177,3.596 -18.115,3.596 z M 46.284,26.396 c -3.834,0 -10.646,1.359 -17.778,3.547 -12.591,3.859 -18.866,7.907 -18.561,8.906 0.044,0.144 0.594,0.519 2.582,0.519 3.833,0 10.646,-1.358 17.781,-3.546 12.59,-3.858 18.862,-7.909 18.557,-8.908 -0.045,-0.143 -0.595,-0.518 -2.581,-0.518 z"
   id="path4404"
   inkscape:connector-curvature="0"
   style="fill:#000000" />
</g>
<text
   x="0"
   y="96.099998"
   font-size="3.4"
   font-weight="bold"
   id="text4406"
   style="font-size:3.4000001px;font-weight:bold;fill:#000000;font-family:'Helvetica Neue, Helvetica, Arial-Unicode, Arial, Sans-serif'">Created by Irit Barzily</text>
<text
   x="0"
   y="99.5"
   font-size="3.4"
   font-weight="bold"
   id="text4408"
   style="font-size:3.4000001px;font-weight:bold;fill:#000000;font-family:'Helvetica Neue, Helvetica, Arial-Unicode, Arial, Sans-serif'">from the Noun Project</text>
</svg>