<?xml version="1.0" encoding="UTF-8" standalone="no"?>
<svg
   xmlns:dc="http://purl.org/dc/elements/1.1/"
   xmlns:cc="http://creativecommons.org/ns#"
   xmlns:rdf="http://www.w3.org/1999/02/22-rdf-syntax-ns#"
   xmlns:svg="http://www.w3.org/2000/svg"
   xmlns="http://www.w3.org/2000/svg"
   xmlns:sodipodi="http://sodipodi.sourceforge.net/DTD/sodipodi-0.dtd"
   xmlns:inkscape="http://www.inkscape.org/namespaces/inkscape"
   version="1.1"
   id="Layer_1"
   width="80"
   height="80"
   viewBox="2.56765 -7.8939 79.999999 108"
   overflow="visible"
   enable-background="new 0 0 51.353 78.939"
   xml:space="preserve"
   inkscape:version="0.48.5 r10040"
   sodipodi:docname="noun_26860_cc.svg"
   style="overflow:visible"><metadata
   id="metadata3059"><rdf:RDF><cc:Work
       rdf:about=""><dc:format>image/svg+xml</dc:format><dc:type
         rdf:resource="http://purl.org/dc/dcmitype/StillImage" /><dc:title></dc:title></cc:Work></rdf:RDF></metadata><defs
   id="defs3057" /><sodipodi:namedview
   pagecolor="#ffffff"
   bordercolor="#666666"
   borderopacity="1"
   objecttolerance="10"
   gridtolerance="10"
   guidetolerance="10"
   inkscape:pageopacity="0"
   inkscape:pageshadow="2"
   inkscape:window-width="1366"
   inkscape:window-height="705"
   id="namedview3055"
   showgrid="false"
   inkscape:zoom="2.9896501"
   inkscape:cx="25.6765"
   inkscape:cy="39.469501"
   inkscape:window-x="-8"
   inkscape:window-y="-8"
   inkscape:window-maximized="1"
   inkscape:current-layer="Layer_1" />
<g
   id="g3045"
   transform="translate(15.568356,1.4328)">
	<g
   id="g3047">
		<path
   d="m 42.627,35.16 c -1.454,2.315 -3.729,4.346 -5.197,6.929 -3.506,6.165 -5.804,12.552 -5.804,12.354 0,-0.42 2.47,-7.924 5.207,-13.37 1.702,-3.386 4.186,-5.656 4.181,-5.914 C 40.545,14.316 33.173,0 27.72,0 20.657,0 14.876,13.607 14.273,33.774 c -0.007,0.246 3.139,3.355 6.192,8.016 4.446,6.783 9.337,15.891 9.331,16.253 -0.003,0.251 -4.836,-7.895 -10.167,-15.297 -1.757,-2.438 -6.121,-7.284 -7.766,-9.02 -2.264,-2.39 -6.962,5.276 -9.421,12.049 -3.584,9.877 -2.166,23.582 -2.166,23.711 0,0.424 5.814,-20.561 11.452,-23.213 0,0 0.798,3.129 0.985,4.805 1.768,15.789 9.008,27.861 15.006,27.861 7.057,0 11.362,-6.635 12.357,-21.725 0.02,-0.295 3.599,-15.958 5.142,-13.434 1.824,2.984 6.128,7.26 6.134,6.799 0.003,-0.143 -6.166,-19.49 -8.725,-15.419 z m -8.824,10.273 c 0,0.814 -0.66,1.476 -1.475,1.476 -0.815,0 -1.476,-0.661 -1.476,-1.476 V 44.19 c 0,-0.814 0.66,-1.474 1.476,-1.474 0.814,0 1.475,0.66 1.475,1.474 v 1.243 z M 22.523,23.868 c 0,-0.815 0.66,-1.475 1.475,-1.475 0.815,0 1.476,0.66 1.476,1.475 v 1.243 c 0,0.815 -0.66,1.475 -1.476,1.475 -0.814,0 -1.475,-0.66 -1.475,-1.475 v -1.243 z m -0.205,-3.059 v -1.243 c 0,-0.815 0.66,-1.475 1.476,-1.475 0.814,0 1.475,0.66 1.475,1.475 v 1.243 c 0,0.814 -0.66,1.475 -1.475,1.475 -0.816,0 -1.476,-0.66 -1.476,-1.475 z m 1.932,7.185 c 0,-0.814 0.66,-1.475 1.475,-1.475 0.815,0 1.476,0.661 1.476,1.475 v 1.243 c 0,0.815 -0.66,1.475 -1.476,1.475 -0.814,0 -1.475,-0.66 -1.475,-1.475 v -1.243 z m 3.259,-5.308 c 0.815,0 1.476,0.66 1.476,1.475 v 1.243 c 0,0.815 -0.66,1.475 -1.476,1.475 -0.814,0 -1.475,-0.66 -1.475,-1.475 v -1.243 c 0,-0.694 0.48,-1.271 1.125,-1.429 -0.067,0.01 -0.136,0.021 -0.206,0.021 -0.814,0 -1.475,-0.661 -1.475,-1.475 v -1.243 c 0,-0.815 0.66,-1.475 1.475,-1.475 0.815,0 1.476,0.66 1.476,1.475 v 1.243 c 0,0.693 -0.48,1.271 -1.126,1.429 0.068,-0.01 0.136,-0.021 0.206,-0.021 z m 4.9,2.044 c 0,0.815 -0.719,1.475 -1.606,1.475 -0.889,0 -1.607,-0.66 -1.607,-1.475 v -1.243 c 0,-0.815 0.719,-1.476 1.607,-1.476 0.888,0 1.606,0.661 1.606,1.476 v 1.243 z m 1.171,2.942 v 1.243 c 0,0.814 -0.66,1.475 -1.476,1.475 -0.814,0 -1.475,-0.661 -1.475,-1.475 v -1.243 c 0,-0.815 0.66,-1.475 1.475,-1.475 0.815,0 1.476,0.66 1.476,1.475 z m -1.698,-7.214 c 0,0.815 -0.66,1.476 -1.476,1.476 -0.814,0 -1.475,-0.661 -1.475,-1.476 v -1.243 c 0,-0.815 0.66,-1.475 1.475,-1.475 0.815,0 1.476,0.66 1.476,1.475 v 1.243 z m -6.901,11.868 c 0,-0.815 0.66,-1.475 1.476,-1.475 0.814,0 1.475,0.66 1.475,1.475 v 1.243 c 0,0.815 -0.66,1.475 -1.475,1.475 -0.815,0 -1.476,-0.66 -1.476,-1.475 v -1.243 z m 2.546,-2.884 v -1.243 c 0,-0.815 0.66,-1.475 1.476,-1.475 0.814,0 1.475,0.66 1.475,1.475 v 1.243 c 0,0.815 -0.66,1.475 -1.475,1.475 -0.816,0 -1.476,-0.66 -1.476,-1.475 z m 0.761,3.176 c 0,-0.815 0.661,-1.475 1.476,-1.475 0.815,0 1.475,0.66 1.475,1.475 v 1.243 c 0,0.815 -0.66,1.476 -1.475,1.476 -0.815,0 -1.476,-0.661 -1.476,-1.476 v -1.243 z m 2.166,3.57 c 0,-0.815 0.66,-1.475 1.476,-1.475 0.814,0 1.475,0.66 1.475,1.475 v 1.243 c 0,0.814 -0.66,1.475 -1.475,1.475 -0.815,0 -1.476,-0.661 -1.476,-1.475 v -1.243 z m 2.499,-1.496 c -0.814,0 -1.475,-0.66 -1.475,-1.475 v -1.243 c 0,-0.815 0.66,-1.476 1.475,-1.476 0.815,0 1.476,0.661 1.476,1.476 v 1.243 c -0.001,0.815 -0.661,1.475 -1.476,1.475 z m 1.012,-5.806 v -1.243 c 0,-0.815 0.66,-1.475 1.476,-1.475 0.814,0 1.475,0.66 1.475,1.475 v 1.243 c 0,0.814 -0.66,1.475 -1.475,1.475 -0.816,0 -1.476,-0.66 -1.476,-1.475 z m 1.546,-4.009 c 0,0.814 -0.66,1.475 -1.476,1.475 -0.814,0 -1.475,-0.661 -1.475,-1.475 v -1.243 c 0,-0.815 0.66,-1.475 1.475,-1.475 0.815,0 1.476,0.66 1.476,1.475 v 1.243 z m -0.79,-4.185 c 0,0.815 -0.563,1.475 -1.256,1.475 -0.693,0 -1.256,-0.66 -1.256,-1.475 v -1.243 c 0,-0.815 0.563,-1.476 1.256,-1.476 0.693,0 1.256,0.661 1.256,1.476 v 1.243 z m -1.75,-4.509 c 0,0.815 -0.66,1.475 -1.475,1.475 -0.815,0 -1.476,-0.66 -1.476,-1.475 V 14.94 c 0,-0.815 0.66,-1.475 1.476,-1.475 0.814,0 1.475,0.66 1.475,1.475 v 1.243 z m -1.147,-4.212 c 0,0.815 -0.66,1.475 -1.476,1.475 -0.814,0 -1.475,-0.66 -1.475,-1.475 v -1.243 c 0,-0.815 0.66,-1.475 1.475,-1.475 0.815,0 1.476,0.66 1.476,1.475 v 1.243 z m -2.213,3.838 v 1.243 c 0,0.814 -0.66,1.475 -1.475,1.475 -0.815,0 -1.476,-0.661 -1.476,-1.475 v -1.243 c 0,-0.815 0.661,-1.475 1.476,-1.475 0.815,0 1.475,0.66 1.475,1.475 z m -1.007,-3.165 c 0,0.815 -0.66,1.475 -1.475,1.475 -0.815,0 -1.476,-0.66 -1.476,-1.475 v -1.243 c 0,-0.815 0.66,-1.476 1.476,-1.476 0.814,0 1.475,0.661 1.475,1.476 v 1.243 z m -2.265,2.404 v 1.243 c 0,0.815 -0.66,1.475 -1.476,1.475 -0.814,0 -1.475,-0.66 -1.475,-1.475 v -1.243 c 0,-0.815 0.66,-1.475 1.475,-1.475 0.816,0 1.476,0.66 1.476,1.475 z m -0.837,-2.902 c 0,0.815 -0.66,1.475 -1.476,1.475 -0.814,0 -1.475,-0.66 -1.475,-1.475 v -1.243 c 0,-0.815 0.66,-1.475 1.475,-1.475 0.815,0 1.476,0.66 1.476,1.475 v 1.243 z m -2.364,3.561 v 1.243 c 0,0.815 -0.66,1.475 -1.475,1.475 -0.815,0 -1.476,-0.66 -1.476,-1.475 v -1.243 c 0,-0.814 0.66,-1.475 1.476,-1.475 0.815,-10e-4 1.475,0.66 1.475,1.475 z m -2.684,2.743 c 0.814,0 1.475,0.661 1.475,1.475 v 1.243 c 0,0.815 -0.66,1.475 -1.475,1.475 -0.815,0 -1.476,-0.66 -1.476,-1.475 v -1.243 c 0,-0.815 0.66,-1.475 1.476,-1.475 z m -1.092,5.916 c 0,-0.815 0.661,-1.475 1.476,-1.475 0.815,0 1.475,0.66 1.475,1.475 v 1.243 c 0,0.815 -0.66,1.475 -1.475,1.475 -0.815,0 -1.476,-0.66 -1.476,-1.475 v -1.243 z m 1.341,3.745 v 1.243 c 0,0.814 -0.66,1.475 -1.475,1.475 -0.815,0 -1.476,-0.661 -1.476,-1.475 v -1.243 c 0,-0.815 0.66,-1.475 1.476,-1.475 0.814,0 1.475,0.66 1.475,1.475 z m -2.248,4.303 c 0,-0.815 0.661,-1.475 1.476,-1.475 0.815,0 1.475,0.66 1.475,1.475 v 1.243 c 0,0.815 -0.66,1.475 -1.475,1.475 -0.815,0 -1.476,-0.66 -1.476,-1.475 v -1.243 z m 2.663,-2.972 v -1.243 c 0,-0.815 0.661,-1.475 1.476,-1.475 0.815,0 1.476,0.66 1.476,1.475 v 1.243 c 0,0.815 -0.661,1.475 -1.476,1.475 -0.815,0 -1.476,-0.66 -1.476,-1.475 z m 0.527,3.088 c 0,-0.814 0.66,-1.475 1.475,-1.475 0.815,0 1.476,0.661 1.476,1.475 v 1.243 c 0,0.814 -0.66,1.475 -1.476,1.475 -0.814,0 -1.475,-0.661 -1.475,-1.475 V 32.53 z m 2.839,4.185 c 0,-0.815 0.66,-1.475 1.475,-1.475 0.815,0 1.476,0.66 1.476,1.475 v 1.243 c 0,0.815 -0.66,1.475 -1.476,1.475 -0.814,0 -1.475,-0.66 -1.475,-1.475 v -1.243 z m 1.713,4.02 c 0,-0.815 0.584,-1.476 1.307,-1.476 0.722,0 1.306,0.661 1.306,1.476 v 1.243 c 0,0.814 -0.584,1.476 -1.306,1.476 -0.723,0 -1.307,-0.662 -1.307,-1.476 v -1.243 z m 1.418,-2.631 v -1.243 c 0,-0.815 0.563,-1.475 1.256,-1.475 0.693,0 1.256,0.66 1.256,1.475 v 1.243 c 0,0.815 -0.563,1.475 -1.256,1.475 -0.693,0 -1.256,-0.66 -1.256,-1.475 z m 1.586,2.293 c 0,-0.815 0.66,-1.476 1.476,-1.476 0.814,0 1.475,0.661 1.475,1.476 v 1.243 c 0,0.815 -0.66,1.476 -1.475,1.476 -0.815,0 -1.476,-0.66 -1.476,-1.476 v -1.243 z m 6.067,0.98 c 0,0.815 -0.661,1.475 -1.476,1.475 -0.815,0 -1.475,-0.66 -1.475,-1.475 v -1.243 c 0,-0.815 0.66,-1.475 1.475,-1.475 0.815,0 1.476,0.66 1.476,1.475 v 1.243 z m 1.326,-4.033 c 0,0.815 -0.661,1.475 -1.476,1.475 -0.815,0 -1.476,-0.66 -1.476,-1.475 v -1.243 c 0,-0.814 0.661,-1.475 1.476,-1.475 0.815,0 1.476,0.661 1.476,1.475 v 1.243 z m -0.392,-2.652 c -0.815,0 -1.476,-0.66 -1.476,-1.475 v -1.243 c 0,-0.815 0.66,-1.476 1.476,-1.476 0.814,0 1.475,0.661 1.475,1.476 v 1.243 c -10e-4,0.815 -0.661,1.475 -1.475,1.475 z m 3.48,1.191 c 0,0.469 -0.607,0.849 -1.356,0.849 -0.748,0 -1.355,-0.38 -1.355,-0.849 v -0.715 c 0,-0.469 0.607,-0.849 1.355,-0.849 0.749,0 1.356,0.38 1.356,0.849 v 0.715 z m -0.133,-3.937 v 0.922 c 0,0.605 -0.359,1.096 -0.802,1.096 -0.443,0 -0.802,-0.491 -0.802,-1.096 v -0.922 c 0,-0.605 0.359,-1.096 0.802,-1.096 0.443,0 0.802,0.491 0.802,1.096 z m -0.409,-4.069 0.135,1.268 c -0.04,0.874 0.054,1.479 -0.762,1.479 -0.814,0 -1.475,-0.66 -1.475,-1.475 v -1.243 c 0,-0.815 0.66,-1.475 1.475,-1.475 0.816,10e-4 0.47,0.49 0.627,1.446 z m -0.381,-4.214 v 1.243 c 0,0.814 -0.66,1.475 -1.475,1.475 -0.815,0 -1.476,-0.661 -1.476,-1.475 v -1.243 c 0,-0.815 0.66,-1.475 1.476,-1.475 0.815,0 1.475,0.66 1.475,1.475 z M 37.94,19.479 v 1.243 c 0,0.815 -0.66,1.475 -1.476,1.475 -0.814,0 -1.475,-0.66 -1.475,-1.475 v -1.243 c 0,-0.815 0.66,-1.476 1.475,-1.476 0.816,0 1.476,0.661 1.476,1.476 z m -1.568,-4.114 v 1.243 c 0,0.815 -0.66,1.475 -1.476,1.475 -0.814,0 -1.475,-0.66 -1.475,-1.475 v -1.243 c 0,-0.815 0.66,-1.475 1.475,-1.475 0.815,0 1.476,0.66 1.476,1.475 z m -1.359,-4.139 v 1.243 c 0,0.815 -0.66,1.475 -1.475,1.475 -0.815,0 -1.476,-0.66 -1.476,-1.475 v -1.243 c 0,-0.815 0.66,-1.475 1.476,-1.475 0.815,-10e-4 1.475,0.66 1.475,1.475 z M 31.724,5.068 c 0.814,0 1.475,0.661 1.475,1.475 v 1.243 c 0,0.815 -0.66,1.475 -1.475,1.475 -0.815,0 -1.476,-0.66 -1.476,-1.475 V 6.543 C 30.249,5.729 30.909,5.068 31.724,5.068 z M 27.82,3.09 c 0,-0.815 0.339,-1.044 1.154,-1.044 0,0 1.456,0.537 1.796,1.044 0.34,0.507 0,1.243 0,1.243 0,0.815 -0.66,1.476 -1.476,1.476 -0.814,0 -1.475,-0.661 -1.475,-1.476 V 3.09 z m 0.246,2.593 c 0.814,0 1.475,0.66 1.475,1.475 V 8.4 c 0,0.815 -0.66,1.475 -1.475,1.475 -0.815,0 -1.476,-0.66 -1.476,-1.475 V 7.158 c 0,-0.815 0.66,-1.475 1.476,-1.475 z M 27.551,2.651 v 1.243 c 0,0.815 -0.661,1.476 -1.476,1.476 -0.815,0 -1.053,-0.602 -1.036,-1.476 L 24.935,3.012 c 0.059,-1.2 2.575,-2.02 2.616,-0.361 z M 26.38,6.748 v 1.243 c 0,0.815 -0.66,1.475 -1.476,1.475 -0.814,0 -1.475,-0.66 -1.475,-1.475 V 6.748 c 0,-0.815 0.66,-1.475 1.475,-1.475 0.816,0 1.476,0.66 1.476,1.475 z M 24.566,2.797 V 4.04 c 0,0.815 -0.66,1.475 -1.476,1.475 -2.515,0.599 1.476,-3.533 1.476,-2.718 z m -2.792,3.061 c 0.814,0 1.475,0.66 1.475,1.475 v 1.243 c 0,0.815 -0.66,1.475 -1.475,1.475 -0.815,0 -1.476,-0.66 -1.476,-1.475 0,0 0.95,-2.725 1.476,-2.718 z m -3.088,6.845 c 0.294,-1.163 0.485,-1.194 0.485,-1.194 0.606,-0.831 0.766,-1.533 1.357,-1.524 1.018,0 1.842,0.661 1.842,1.475 v 1.243 c 0,0.815 -0.824,1.475 -1.842,1.475 -1.018,0 -2.135,-0.313 -1.842,-1.475 z m -1.336,4.074 c 0.11,-0.483 0.197,-0.98 0.404,-1.435 0.133,-0.292 0.385,-0.734 0.753,-0.747 0.814,0 1.475,0.66 1.475,1.475 v 1.243 c 0,0.815 -0.66,1.475 -1.475,1.475 -0.507,0 -0.939,-0.273 -1.168,-0.72 -0.22,-0.43 -0.089,-0.85 0.011,-1.291 z m -0.835,3.05 c 0,-0.557 0.503,-1.007 1.124,-1.007 0.621,0 1.124,0.451 1.124,1.007 v 0.849 c 0,0.557 -0.503,1.007 -1.124,1.007 -0.621,0 -1.124,-0.451 -1.124,-1.007 v -0.849 z m -0.225,3.397 c 0,-0.815 0.66,-1.475 1.475,-1.475 0.815,0 1.476,0.66 1.476,1.475 v 1.243 c 0,0.815 -0.66,1.476 -1.476,1.476 -0.814,0 -1.475,-0.661 -1.475,-1.476 v -1.243 z m -1.012,5.658 0.234,-1.346 c 0,-0.815 0,-1.434 0.525,-1.456 0.815,0 1.476,0.661 1.476,1.475 v 1.243 c 0,0.815 -0.66,1.475 -1.476,1.475 -0.814,0 -0.759,-0.576 -0.759,-1.391 z m 2.908,4.13 c 0,0.815 -0.66,1.475 -1.475,1.475 -0.815,0 -1.476,-0.66 -1.476,-1.475 V 31.77 c 0,-0.815 0.66,-1.475 1.476,-1.475 0.814,0 1.475,0.66 1.475,1.475 v 1.242 z m 2.897,4.975 c 0,0.815 -0.392,0.824 -1.206,0.824 0,0 -0.399,-0.099 -1.017,-0.896 0,0 -1.475,-2.67 0.747,-2.645 0.815,0 1.476,0.66 1.476,1.475 v 1.242 z m 0.21,0.147 v -1.243 c 0,-0.815 0.66,-1.475 1.476,-1.475 0.814,0 1.475,0.66 1.475,1.475 v 1.243 c 0,0.815 -0.66,1.475 -1.475,1.475 -0.815,0 -1.476,-0.66 -1.476,-1.475 z m 1.638,3.882 v -1.243 c 0,-0.814 0.66,-1.475 1.475,-1.475 0.815,0 1.476,0.661 1.476,1.475 v 1.243 c 0,0.815 -0.661,1.475 -1.476,1.475 -0.815,0 -1.475,-0.66 -1.475,-1.475 z m 1.539,4.168 v -1.242 c 0,-0.815 0.66,-1.476 1.475,-1.476 0.815,0 1.476,0.66 1.476,1.476 v 1.242 c 0,0.815 -0.66,1.476 -1.476,1.476 C 25.13,47.659 24.47,46.999 24.47,46.184 z m 4.604,3.129 c 0,0.654 -0.576,1.186 -1.288,1.186 -0.711,0 -1.287,-0.531 -1.287,-1.186 v -0.998 c 0,-0.654 0.576,-1.185 1.287,-1.185 0.712,0 1.288,0.53 1.288,1.185 v 0.998 z m -1.3,-3.505 v -1.242 c 0,-0.815 0.66,-1.476 1.476,-1.476 0.814,0 1.475,0.661 1.475,1.476 v 1.242 c 0,0.815 -0.66,1.476 -1.475,1.476 -0.816,-10e-4 -1.476,-0.661 -1.476,-1.476 z m 1.688,3.316 v -0.998 c 0,-0.654 0.576,-1.185 1.287,-1.185 0.712,0 1.288,0.53 1.288,1.185 v 0.998 c 0,0.655 -0.576,1.186 -1.288,1.186 -0.71,0 -1.287,-0.531 -1.287,-1.186 z"
   id="path3049"
   inkscape:connector-curvature="0" />
	</g>
</g>
<text
   x="1.7763568e-015"
   y="94.185669"
   font-size="3.94695"
   font-weight="bold"
   id="text3051"
   style="font-size:3.94694996px;font-weight:bold;fill:#000000;font-family:'Helvetica Neue, Helvetica, Arial-Unicode, Arial, Sans-serif'">Created by Joel McKinney</text>
<text
   x="1.7763568e-015"
   y="98.132614"
   font-size="3.94695"
   font-weight="bold"
   id="text3053"
   style="font-size:3.94694996px;font-weight:bold;fill:#000000;font-family:'Helvetica Neue, Helvetica, Arial-Unicode, Arial, Sans-serif'">from the Noun Project</text>
</svg>