<?xml version="1.0" encoding="UTF-8" standalone="no"?>
<svg
   xmlns:dc="http://purl.org/dc/elements/1.1/"
   xmlns:cc="http://creativecommons.org/ns#"
   xmlns:rdf="http://www.w3.org/1999/02/22-rdf-syntax-ns#"
   xmlns:svg="http://www.w3.org/2000/svg"
   xmlns="http://www.w3.org/2000/svg"
   xmlns:sodipodi="http://sodipodi.sourceforge.net/DTD/sodipodi-0.dtd"
   xmlns:inkscape="http://www.inkscape.org/namespaces/inkscape"
   version="1.1"
   x="0px"
   y="0px"
   width="100px"
   height="100px"
   viewBox="0 0 100 100"
   enable-background="new 0 0 100 100"
   xml:space="preserve"
   id="svg2"
   inkscape:version="0.48.5 r10040"
   sodipodi:docname="noun_12534.svg"><metadata
   id="metadata12"><rdf:RDF><cc:Work
       rdf:about=""><dc:format>image/svg+xml</dc:format><dc:type
         rdf:resource="http://purl.org/dc/dcmitype/StillImage" /><dc:title></dc:title></cc:Work></rdf:RDF></metadata><defs
   id="defs10" /><sodipodi:namedview
   pagecolor="#ffffff"
   bordercolor="#666666"
   borderopacity="1"
   objecttolerance="10"
   gridtolerance="10"
   guidetolerance="10"
   inkscape:pageopacity="0"
   inkscape:pageshadow="2"
   inkscape:window-width="640"
   inkscape:window-height="480"
   id="namedview8"
   showgrid="false"
   inkscape:zoom="2.36"
   inkscape:cx="50"
   inkscape:cy="50"
   inkscape:window-x="0"
   inkscape:window-y="0"
   inkscape:window-maximized="0"
   inkscape:current-layer="svg2" />
<g
   id="Captions">
</g>
<g
   id="Your_Icon"
   transform="matrix(-1,0,0,1,99.999381,0)">
	<path
   clip-rule="evenodd"
   d="M 88.337,35.157 C 87.405,34.996 84.916,34.064 84.289,33.591 83.671,33.125 81.182,30.948 80.56,30.636 79.938,30.323 78.227,29.4 77.295,29.239 76.517,29.087 75.119,28.612 74.802,27.994 74.34,27.529 74.34,26.911 74.963,26.598 c 0.774,-0.161 3.107,-1.253 3.729,-1.863 0.622,-0.778 1.711,-2.337 2.023,-2.964 0.306,-0.465 0,-0.931 -0.156,-1.092 -0.156,0 -1.088,0 -1.401,0.475 -0.313,0.465 -1.088,1.558 -1.706,2.015 -0.783,0.313 0.461,-0.771 0.618,-1.702 0.156,-0.787 0.156,-1.558 0.156,-1.871 -0.156,-0.152 -0.626,-0.618 -0.774,-0.466 -0.313,0 -0.622,0.466 -0.47,0.94 0,0.313 0,1.236 -0.313,1.549 -0.152,0.152 -0.31,0.94 -0.618,1.093 -0.313,0.152 -0.779,0.457 -0.779,0.457 0,0 0.313,-1.397 0.313,-2.176 0,-1.084 -0.466,-2.794 -0.622,-3.099 -0.161,-0.322 -0.936,-0.322 -1.093,-0.322 -0.156,0.161 -0.622,0.779 -0.309,1.244 0.309,0.475 0.466,1.093 0.466,1.567 0,0.457 -0.157,1.862 -0.932,2.642 -0.627,0.618 -1.401,1.549 -3.107,1.549 -1.871,0 -2.96,-1.549 -2.96,-1.549 0,0 1.401,-1.406 1.554,-1.719 0.161,-0.313 1.406,-2.016 1.406,-3.574 0,-1.719 -0.94,-4.047 -1.406,-4.818 -0.465,-0.779 -1.71,-2.176 -2.015,-2.489 -0.161,-0.313 -1.093,-0.466 -1.401,-0.152 -0.157,0.152 -0.157,1.083 0.309,1.389 0.31,0.474 1.245,1.871 1.397,2.337 0.313,0.466 0.627,1.558 0.627,2.803 0,1.092 -0.627,3.582 -2.955,3.582 -2.49,0 -5.911,-4.666 -6.533,-5.454 C 57.075,13.533 55.678,9.96 55.213,7.623 54.595,5.294 54.434,1.721 54.434,1.399 54.434,1.093 54.12,0 53.35,0 c -0.783,0 -0.939,0.94 -0.939,1.245 0,0.313 -0.153,2.176 -0.153,2.803 0,0.771 0.31,4.2 0.623,4.818 0.156,0.788 0.156,1.406 0.156,1.406 0,0 -2.185,0.618 -3.116,0.771 -0.931,0.152 -3.421,0.152 -3.421,0.152 0,0 -0.309,-2.329 -0.461,-3.107 0,-0.771 -0.157,-2.955 -0.157,-3.421 0,-0.313 -0.312,-0.94 -0.626,-0.94 -0.462,-0.144 -0.771,0.322 -0.932,0.788 -0.152,0.465 -0.152,2.328 -0.152,2.803 0,0.465 0.152,2.955 0.152,2.955 0,0 -1.092,-1.101 -1.397,-1.566 -0.47,-0.305 -1.558,-1.084 -1.871,-1.084 -0.152,-0.152 -0.618,-0.305 -0.932,0 -0.152,0.313 -0.152,0.94 0.157,1.245 0.313,0.305 1.554,1.871 1.867,2.329 0.309,0.466 2.176,1.871 2.176,1.871 0,0.618 0,1.245 -0.152,2.024 0,0 -0.779,-0.161 -1.401,-0.313 C 42.149,14.627 41.213,14.161 40.595,13.534 40.124,13.068 38.106,11.51 37.635,10.892 37.33,10.274 36.704,9.656 36.391,9.486 36.239,9.173 35.459,8.563 34.997,9.02 c -0.47,0.466 0,1.558 0.157,1.872 0.152,0.152 0.774,1.558 1.236,2.176 0.626,0.466 1.715,1.71 2.023,2.024 0.466,0.466 0.936,0.771 1.397,1.083 0.312,0.313 0.939,0.779 1.558,0.779 0.627,0 1.249,0.161 1.863,0.779 0.626,0.618 5.914,6.52 6.688,7.155 0.779,0.771 2.337,2.643 4.361,3.573 2.015,0.94 4.352,2.024 6.994,2.177 2.646,0.16 4.509,0 4.509,0 -1.088,2.642 -2.02,4.36 -2.646,5.444 -0.771,0.932 -3.107,4.826 -3.107,4.826 0,0 -1.867,-0.313 -2.799,-0.313 -2.489,0 -5.597,1.093 -7.624,1.093 -2.947,0 -13.522,-3.269 -21.457,-3.269 -6.537,0 -10.419,2.946 -11.351,3.582 -0.936,0.609 -3.268,2.328 -4.043,3.726 -0.932,1.396 -1.092,3.26 -1.092,4.513 0,1.389 -0.152,4.971 2.49,4.971 h 0.931 c 0.627,1.71 2.177,4.665 3.112,5.597 0.779,0.932 2.176,2.489 2.646,3.116 0.623,0.466 2.177,1.702 2.024,3.887 0,2.176 -0.932,3.107 -1.401,3.573 -0.313,0.312 -1.401,0.778 -1.401,2.337 0,1.702 1.244,2.489 2.023,2.642 0.779,0.161 2.799,0.618 3.887,2.337 1.088,1.702 1.862,3.107 2.333,3.582 0.47,0.609 3.264,3.717 3.729,4.648 0.627,0.939 1.558,3.582 1.715,3.582 0,0 0.622,-0.153 1.088,0.474 0.313,0.609 0.618,1.084 0.618,1.084 0,0 -0.305,0.466 -0.152,0.932 v 1.558 c 1.244,0.618 2.642,1.397 4.043,2.185 0.157,-0.321 0.31,-0.635 0.462,-0.948 0.16,0.161 0.47,0.313 0.783,0.627 0.309,-0.313 0.309,-0.932 0.156,-1.397 -0.156,-0.313 -0.313,-1.253 -0.47,-1.55 -0.157,-0.16 -0.774,-1.092 -0.774,-1.253 0,-0.152 -0.313,-0.779 -0.471,-0.923 -0.156,-0.313 -0.931,-2.032 -1.24,-2.337 -0.161,-0.152 -2.799,-3.421 -2.955,-3.734 -0.313,-0.474 -1.088,-1.71 -1.245,-1.862 -0.156,-0.313 -1.092,-2.032 -1.092,-2.032 0,0 6.689,3.895 7.003,4.047 0.305,0.161 0.931,0.618 0.931,1.406 0,0.617 0.466,0.931 0.775,0.931 0.312,0 1.405,-0.16 1.714,0.152 0.306,0.313 0.623,0.779 0.932,0.94 0.313,0.152 0.466,0.457 0.466,0.457 0,0 -1.245,2.65 -1.554,2.955 -0.152,0.313 -0.152,1.093 0.156,1.397 0.466,0.313 1.711,1.719 2.02,2.489 0.31,0.787 0.471,1.719 0.471,2.176 0,0.635 0,0.94 0.152,0.94 0.156,0.148 0.621,0.774 1.091,0.774 0.618,0 0.932,-0.626 0.932,-0.778 0,-0.152 0.308,0.618 0.308,0.618 0,0 0.775,-0.313 0.937,-0.466 0,0 0.309,-0.618 0.309,-0.779 0,-0.161 -0.47,-0.932 -0.622,-1.084 -0.157,-0.161 -0.623,-2.65 -0.623,-4.199 0,-1.559 0.313,-3.269 0.466,-4.048 0.157,-0.771 0.936,-4.2 1.241,-4.971 0.16,-0.778 1.558,-4.047 2.027,-4.817 0.31,-0.94 0.775,-1.719 0.775,-1.719 h 2.646 c 0.622,0 2.485,-0.458 3.265,-0.779 1.396,-0.457 4.047,-2.168 4.665,-2.794 0.779,-0.627 3.269,-2.024 3.734,-2.177 0.466,-0.313 3.107,-1.558 3.729,-1.871 0.623,-0.305 2.489,-0.771 2.646,-0.771 0,-0.161 0.466,-0.475 0.618,-0.627 0.156,0 0.313,-0.312 0.466,-0.626 0.16,-0.152 0.474,-1.863 0.474,-2.177 0,-0.312 0,-0.771 -0.161,-0.923 0,-0.16 -1.083,-0.787 -1.244,-0.787 -0.31,-0.152 -3.573,-1.389 -4.505,-2.016 -0.939,-0.474 -3.577,-1.405 -3.577,-1.405 0.461,-0.932 0.774,-1.55 1.24,-2.176 0.466,-0.466 1.397,-0.932 1.867,-1.245 0.622,-0.152 0.932,-0.152 1.245,-0.466 0.309,-0.466 0.156,-0.939 0.156,-1.236 0.152,-0.474 0.313,-1.396 0.618,-1.88 0.313,-0.465 0.779,-1.701 1.088,-2.176 0.313,-0.466 1.867,-2.642 2.333,-3.26 0.313,-0.466 1.088,-1.405 1.405,-2.176 0.305,-0.932 0.775,-2.338 0.775,-2.795 0,-0.474 0.156,-1.396 0.156,-1.396 0,0 0.779,0.296 1.401,0.296 0.461,-0.152 2.02,-0.779 2.324,-0.932 0.161,-0.305 0.939,-0.771 1.558,-0.771 0.627,0 2.024,0.313 2.803,0.313 0.627,0 1.559,-0.161 2.024,-0.474 0.305,-0.466 1.088,-1.559 1.244,-2.016 0.305,-0.475 0.618,-1.566 0.775,-2.023 0.003,-0.311 0.159,-1.234 0.159,-1.234 M 65.475,26.131 c -1.71,-1.397 -4.513,-3.573 -5.287,-4.361 -0.623,-0.931 -2.799,-2.955 -3.269,-3.725 -0.462,-0.779 -2.177,-2.803 -2.485,-3.269 -0.313,-0.618 -1.245,-1.549 -2.489,-1.397 -1.245,0.152 -2.177,0.457 -2.955,0.457 -0.775,0 -1.711,-0.152 -1.711,-0.152 0.152,1.092 0.936,3.582 1.245,4.208 0.313,0.609 1.558,2.947 2.023,3.413 0.466,0.626 1.863,1.719 2.951,1.719 0.622,0 0.622,-1.093 0.622,-1.406 0,-0.465 -0.152,-1.549 -0.622,-1.871 -0.31,-0.457 -0.932,-1.549 -1.088,-2.015 -0.153,-0.466 -0.627,-1.871 -0.627,-2.176 0,-0.153 0.161,-0.466 0.627,-0.466 0.47,0 0.939,0.466 1.088,0.626 0,0.144 1.401,2.176 1.715,2.481 0.465,0.931 1.083,2.956 1.396,3.734 0.161,0.779 0.31,1.397 0.31,1.711 0.156,0.466 0.47,1.702 1.244,2.176 0.783,0.618 1.715,1.245 4.043,1.245 2.177,-0.153 3.269,-0.932 3.269,-0.932 M 48.523,73.404 c 0.622,-2.955 1.244,-5.749 1.396,-6.215 0,-0.627 0,-1.871 -1.396,-1.719 -1.554,0 -4.975,-0.152 -6.224,-0.618 -1.245,-0.313 -4.505,-1.093 -5.284,-1.559 -0.931,-0.457 -2.176,-0.457 -2.642,0 -0.466,0.779 0,1.719 0,2.177 0,0.626 -0.161,1.235 -0.466,1.871 -0.47,0.618 -1.092,1.862 -1.562,2.337 -0.461,0.609 -0.774,1.084 -1.24,1.389 -0.466,0.313 -2.328,1.244 -2.642,1.405 -0.314,0.161 -0.779,0.618 -0.156,1.397 0.618,0.771 2.484,2.176 3.264,2.803 0.627,0.466 3.269,2.023 4.043,2.48 0.775,0.322 3.265,1.559 4.196,2.177 0.783,0.474 2.337,1.244 2.646,1.558 0.47,0.475 2.799,2.176 2.799,2.176 0.626,-1.405 1.244,-3.099 1.405,-3.581 0.152,-0.457 0.466,-3.1 0.466,-3.1 0,0 -0.936,-0.313 -1.245,-0.313 -0.156,-0.16 -0.626,-0.931 0,-1.396 0.157,0 0.466,-0.152 0.466,-0.152 0,0 -0.622,-0.475 -0.622,-1.254 0,-0.626 0.936,-1.396 1.554,-1.71 0.779,-0.153 1.244,-0.153 1.244,-0.153 m 4.975,-0.161 c 0.313,-1.702 1.558,-4.191 2.027,-4.817 0.462,-0.618 1.394,-2.024 2.177,-2.49 0.618,-0.465 1.083,-0.771 2.015,-0.771 0.779,0 1.715,0.618 2.177,0.771 0.626,0 2.027,0.627 3.272,0.627 1.24,0.144 1.862,0.144 2.333,0.144 0.465,0.17 0.618,0.322 0.774,0.483 0,0.152 -0.156,0.466 -0.31,0.466 -0.16,0 -7.934,3.726 -8.247,3.886 -0.466,0.313 -1.862,0.771 -2.798,0.932 -0.775,0 -1.554,-0.161 -1.554,-0.161 0.16,0 -0.623,1.093 -0.623,1.093 l -1.243,-0.163 z"
   id="path6"
   inkscape:connector-curvature="0"
   style="fill:#000000;fill-rule:evenodd" />
</g>
</svg>