<?xml version="1.0" encoding="UTF-8" standalone="no"?>
<svg
   xmlns:dc="http://purl.org/dc/elements/1.1/"
   xmlns:cc="http://creativecommons.org/ns#"
   xmlns:rdf="http://www.w3.org/1999/02/22-rdf-syntax-ns#"
   xmlns:svg="http://www.w3.org/2000/svg"
   xmlns="http://www.w3.org/2000/svg"
   xmlns:sodipodi="http://sodipodi.sourceforge.net/DTD/sodipodi-0.dtd"
   xmlns:inkscape="http://www.inkscape.org/namespaces/inkscape"
   version="1.1"
   id="Layer_1"
   x="0px"
   y="0px"
   width="100px"
   height="100px"
   viewBox="5.0 -10.0 100.0 135.0"
   enable-background="new 0 0 100 100"
   xml:space="preserve"
   inkscape:version="0.48.5 r10040"
   sodipodi:docname="noun_37047_cc.svg"><metadata
   id="metadata3021"><rdf:RDF><cc:Work
       rdf:about=""><dc:format>image/svg+xml</dc:format><dc:type
         rdf:resource="http://purl.org/dc/dcmitype/StillImage" /><dc:title></dc:title></cc:Work></rdf:RDF></metadata><defs
   id="defs3019" /><sodipodi:namedview
   pagecolor="#ffffff"
   bordercolor="#666666"
   borderopacity="1"
   objecttolerance="10"
   gridtolerance="10"
   guidetolerance="10"
   inkscape:pageopacity="0"
   inkscape:pageshadow="2"
   inkscape:window-width="640"
   inkscape:window-height="480"
   id="namedview3017"
   showgrid="false"
   inkscape:zoom="2.36"
   inkscape:cx="50"
   inkscape:cy="50"
   inkscape:window-x="0"
   inkscape:window-y="0"
   inkscape:window-maximized="0"
   inkscape:current-layer="Layer_1" />
<path
   fill-rule="evenodd"
   clip-rule="evenodd"
   d="M38.884,6.248c-9.496,1.856-17.92,4.976-20.116,16.666  c5.192-2.11,9.505-1.404,13.771,3.112c-3.963,0.181-7.156,0.327-11.541,0.529c6.19,1.287,8.452,5.707,11.358,9.254  c1.566,1.914,3.046,2.648,5.39,2.401c3.25-0.341,6.373,0.097,9.633,0.866c4.437,1.051,9.214,0.303,13.31-1.705  c6.99-3.42,13.779-3.967,20.687-0.226c2.324,1.26,4.35,1.875,7.064,0.671c2.863-1.267,5.929-0.01,8.573,1.294  c2.443,1.201,2.172,4.521-0.521,9.343c-3.007-2.554-5.126-6.048-9.127-7.791c2.376,3.188,2.832,6.709,2.634,10.484  c-0.247,4.774-1.051,9.117-4.225,13.06c-2.631,3.268-5.261,7.067-1.545,11.476c0.755,0.895-0.16,1.9-0.202,2.864  c-0.104,2.265-0.967,4.924,0.418,6.688c3.027,3.853,0.605,7.137-0.703,10.346c-0.769,1.89-3.469,1.18-4.917,0.64  c-1.928-0.72-0.254-2.342,0.397-2.972c5.682-5.494,3.267-11.291,0.337-16.691c-3.132-5.773-6.117-11.501-7.126-19.007  c-0.647,2.502-0.741,4.158-0.073,5.647c1.576,3.512-0.372,4.402-3.271,4.979c-7.019,1.393-14.082,1.932-21.228,1.702  c-3.875-0.122-7.667-0.087-7.006-5.916c-0.58,7.172-2.431,14.048-0.226,21.056c0.962,3.056-1.19,6.076-0.703,9.476  c0.25,1.754-3.509,0.521-5.43,0.901c-0.064-0.487-0.238-0.888-0.118-1.02c7.593-8.428,0.498-16.098-1.22-24.041  c-7.537-4.159-6.533-12.834-10.047-19.129c-2.19-3.921-3.577-8.299-7.088-12.46c-0.861,4.364-1.973,7.913-5.315,10.589  c-0.75-2.54,0.41-4.621,0.504-6.761c0.094-2.105-0.407-2.808-2.697-2.088c-2.086,0.658-4.792,2.752-6.368-0.477  c-1.373-2.812,0.101-5.453,2.374-7.133c6.294-4.659,10.799-10.222,14.02-17.684C22.073,7,30.369,5.474,38.884,6.248z"
   id="path3005" />
<path
   fill-rule="evenodd"
   clip-rule="evenodd"
   d="M42.814,93.796c6.666-4.594,3.236-9.465,1.114-14.34  c-0.785-1.807-1.364-3.727-1.801-5.647c-0.197-0.87-1.31-2.356,0.55-2.704c1.181-0.223,3.152-0.16,3.219,1.284  c0.292,6.375,3.6,12.127,2.836,18.874C48.096,96.886,44.989,92.839,42.814,93.796z"
   id="path3007" />
<path
   fill-rule="evenodd"
   clip-rule="evenodd"
   d="M73.474,94.397c7.255-5.609,4.089-12.6,3.114-19.271  c3.059,2.944,5.975,11.469,4.058,13.814C78.878,91.113,77.712,94.676,73.474,94.397z"
   id="path3009" />
<path
   fill-rule="evenodd"
   clip-rule="evenodd"
   d="M13.946,20.65C14.172,11.276,19.596,5.3,29.323,2.838  c-3.114,2.135-6.274,4.204-8.88,6.968C17.795,12.612,15.935,15.901,13.946,20.65z"
   id="path3011" />
<text
   x="0.0"
   y="117.5"
   font-size="5.0"
   font-weight="bold"
   font-family="Helvetica Neue, Helvetica, Arial-Unicode, Arial, Sans-serif"
   fill="#000000"
   id="text3013">Created by Ealancheliyan s</text>
<text
   x="0.0"
   y="122.5"
   font-size="5.0"
   font-weight="bold"
   font-family="Helvetica Neue, Helvetica, Arial-Unicode, Arial, Sans-serif"
   fill="#000000"
   id="text3015">from the Noun Project</text>
</svg>