<?xml version="1.0" encoding="UTF-8" standalone="no"?>
<svg
   xmlns:dc="http://purl.org/dc/elements/1.1/"
   xmlns:cc="http://creativecommons.org/ns#"
   xmlns:rdf="http://www.w3.org/1999/02/22-rdf-syntax-ns#"
   xmlns:svg="http://www.w3.org/2000/svg"
   xmlns="http://www.w3.org/2000/svg"
   xmlns:sodipodi="http://sodipodi.sourceforge.net/DTD/sodipodi-0.dtd"
   xmlns:inkscape="http://www.inkscape.org/namespaces/inkscape"
   version="1.1"
   x="0px"
   y="0px"
   width="100px"
   height="100px"
   viewBox="0 0 100 100"
   enable-background="new 0 0 100 100"
   xml:space="preserve"
   id="svg3391"
   inkscape:version="0.48.5 r10040"
   sodipodi:docname="noun_12533.svg"><metadata
   id="metadata3401"><rdf:RDF><cc:Work
       rdf:about=""><dc:format>image/svg+xml</dc:format><dc:type
         rdf:resource="http://purl.org/dc/dcmitype/StillImage" /><dc:title></dc:title></cc:Work></rdf:RDF></metadata><defs
   id="defs3399" /><sodipodi:namedview
   pagecolor="#ffffff"
   bordercolor="#666666"
   borderopacity="1"
   objecttolerance="10"
   gridtolerance="10"
   guidetolerance="10"
   inkscape:pageopacity="0"
   inkscape:pageshadow="2"
   inkscape:window-width="640"
   inkscape:window-height="480"
   id="namedview3397"
   showgrid="false"
   inkscape:zoom="2.36"
   inkscape:cx="50"
   inkscape:cy="50"
   inkscape:window-x="0"
   inkscape:window-y="0"
   inkscape:window-maximized="0"
   inkscape:current-layer="svg3391" />
<g
   id="Captions">
</g>
<g
   id="Your_Icon"
   transform="matrix(-1,0,0,1,99.998828,0)">
	<path
   clip-rule="evenodd"
   d="m 68.371,21.561 c 0.168,0.173 -0.169,0.337 -0.169,0.337 0,0 -1.171,0.337 -1.508,0.838 -0.337,0.338 -0.834,1.504 -0.834,1.504 0.67,-0.164 1.508,-0.337 2.342,-0.675 0.169,0 0.337,0.174 0.506,0.338 0.164,0 -2.014,0.838 -2.511,1.166 -0.337,0.347 -2.009,1.686 -2.51,1.686 -0.501,0 -1.677,0.164 -1.677,0.164 0.169,0.337 0.337,0.665 0.665,1.166 0,0 -1.166,0.675 -1.166,0.839 -0.164,0.173 -1.003,1.176 -1.003,1.176 0,0 3.012,0.327 4.015,-1.34 -1.003,1.667 -3.345,3.344 -8.201,3.344 -5.021,0 -9.034,-2.004 -11.713,-3.007 -2.848,-1.166 -6.528,-2.515 -9.541,-2.515 -2.843,0 -6.191,0.838 -8.365,2.852 -3.85,-1.503 -9.207,-0.674 -11.718,1.668 -2.342,2.342 -4.684,5.194 -5.021,7.19 -0.501,2.187 -1.672,7.371 -3.345,9.723 -2.346,3.835 -5.021,4.847 -5.859,6.514 -0.838,1.677 -0.838,5.194 -0.674,5.194 0.337,0.164 1.513,0 2.182,-0.338 1.34,-0.501 5.017,-4.346 6.356,-6.187 1.339,-1.85 5.864,-9.886 6.529,-12.72 0.67,-2.843 1.339,-5.695 3.349,-7.199 2.178,-1.504 4.848,-0.838 4.848,-0.665 0,0 -2.506,2.005 -2.67,7.527 -0.173,5.521 3.176,4.856 1.503,8.365 -1.676,3.015 -6.692,1.002 -8.364,2.842 -1.34,1.513 0,6.861 0,7.863 0,1.012 -0.51,5.695 -0.838,6.871 -0.173,1.002 0,1.667 -0.173,2.342 -0.164,0.51 1.012,0.665 1.012,0.665 0,0 -1.012,1.33 -1.513,1.011 -0.501,-0.173 -0.834,-0.173 -1.167,0 -0.337,0 -1.002,0.319 -1.676,0 l -2.68,5.687 c 0.338,0.173 0.839,0.328 1.34,0.173 0.674,-0.173 4.019,-1.686 4.355,-2.022 0.501,-0.164 3.345,-1.832 3.846,-2.834 0.337,-1.003 1.002,-4.191 1.002,-5.185 0.169,-1.012 0.337,-4.192 0.337,-5.021 0,-0.838 -0.168,-2.342 0,-3.016 0.338,-0.501 0.839,-1.176 1.509,-1.513 0.833,-0.164 1.836,-0.164 2.004,-0.164 0.338,0 3.185,0.337 3.682,0.337 0.67,0 3.349,-0.501 4.019,-0.847 0.838,-0.155 1.335,0 1.508,0.346 0.333,0.328 -0.337,0.829 -0.337,1.003 -0.164,0.163 -1.504,1.84 -1.841,2.505 -0.337,0.839 -1.504,2.342 -1.166,3.017 0.332,0.665 0.332,0.838 1.335,1.349 1.007,0.318 4.852,2.342 7.029,4.347 2.342,2.159 4.52,4.838 4.858,6.187 0.496,1.513 1.334,1.668 1.836,1.668 0.506,0.173 1.508,0.337 1.508,1.011 0,0.666 -0.173,1.504 -0.173,1.504 l 6.196,2.343 c 0,0 0,-2.179 -0.164,-3.008 C 49.296,76.964 48.289,75.962 47.45,74.95 46.617,73.775 37.92,65.246 37.076,64.572 36.243,64.07 35.568,63.405 35.404,62.066 c -0.173,-1.349 1.504,-2.342 2.516,-3.509 0.665,-0.838 2.506,-4.692 2.838,-5.202 0.333,-0.492 1.508,-1.832 2.173,-1.832 0.839,0 2.68,1.176 5.025,2.005 1.003,0.337 8.196,2.169 9.208,2.515 1.002,0.164 3.171,0 3.846,0.665 0.665,0.501 0,1.85 -0.169,2.679 -0.169,1.003 -2.005,4.684 -2.005,4.684 0,0 0.333,1.331 0.333,2.352 0,1.166 -0.501,5.349 -1.003,6.679 -0.337,1.513 -2.679,5.367 -3.185,6.033 -0.332,0.501 -0.833,0.839 -0.833,1.677 0,0.829 1.503,1.012 2.004,1.668 0.675,0.51 0.169,1.503 0,2.515 l 6.697,2.843 c 0,-0.501 0.338,-1.34 0,-1.677 -0.173,-0.492 -1.002,-1.503 -1.503,-2.178 -0.337,-0.501 -1.508,-2.342 -1.841,-2.679 -0.337,-0.492 -0.337,-1.494 0,-2.343 0.164,-0.828 2.342,-6.516 2.506,-7.189 0.337,-0.829 3.518,-7.536 3.85,-8.365 0.337,-1.002 3.012,-5.858 3.349,-6.697 0.333,-1.011 2.511,-1.841 3.181,-1.841 0.833,0 5.021,1.504 5.686,1.841 0.501,0.164 4.356,1.85 5.021,2.178 0.839,0.328 0.337,1.003 -0.164,1.176 -0.501,0.328 -6.698,4.511 -7.199,4.684 -0.501,0.164 -1.002,0.656 -1.34,0.656 -0.501,0 -1.171,0.52 -1.171,0.684 0,0.337 -0.164,1.002 -1.002,1.002 -0.67,0 -2.009,-1.002 -2.843,-2.005 -1.176,0.665 -2.01,1.176 -2.515,2.169 -0.834,0.829 -1.171,1.513 -1.673,2.679 0.338,0.337 1.007,0.492 1.504,0.492 h 5.357 c 0.502,0 1.171,-0.155 1.677,-0.319 0.501,-0.337 13.72,-9.039 13.72,-9.039 0,0 2.182,-1.677 2.182,-3.18 0,-1.176 -1.011,-1.513 -1.339,-2.014 -0.506,-0.328 -3.518,-2.342 -4.019,-2.67 -0.675,-0.501 -3.017,-1.85 -3.682,-2.187 -0.506,-0.328 -2.351,-0.993 -2.351,-0.993 0.51,-1.513 0.843,-2.68 1.007,-3.017 0.173,-0.337 0.173,-3.354 0.333,-3.854 0,-0.492 0.843,-2.67 1.175,-3.007 0.337,-0.337 1.176,-3.016 1.34,-3.518 0.173,-0.328 1.503,-4.182 2.178,-4.182 0.665,-0.164 1.339,0.501 2.005,0.501 0.674,0.164 3.18,-0.164 4.52,0 1.175,0.164 2.679,1.677 3.016,1.841 0.501,0.173 1.668,0.665 2.005,0.665 0.169,0 1.841,-1.167 1.841,-1.495 0,-0.346 -1.176,-1.011 -1.34,-1.011 -0.164,-0.164 -1.335,-0.839 -1.335,-0.839 0,0.174 0.497,-0.328 1.335,-0.328 0.67,0 1.34,0.666 1.504,0.839 0.337,0.164 1.175,0.665 1.339,0.328 C 99.33,32.777 100,31.938 100,31.438 100,30.764 99.33,29.935 98.997,29.597 98.665,29.26 94.814,25.588 94.477,25.415 93.976,25.251 91.971,23.4 91.971,22.909 91.798,22.562 90.796,21.733 90.632,21.56 c -0.174,-0.164 -5.189,-3.672 -5.859,-4.192 -0.67,-0.492 -1.34,-1.33 -1.34,-2.168 0,-0.829 -0.337,-3.007 -0.337,-3.007 0,0 -1.166,-0.164 -1.672,0.328 -0.497,0.346 -1.672,3.025 -2.342,3.025 -1.846,-0.346 -4.188,0.164 -4.188,0.492 0.173,0.501 1.845,0.164 1.845,0.164 0,0.173 -0.67,1.002 -1.176,1.002 -0.332,0 -1.335,0.337 -1.503,0.501 -0.333,0 -1.003,0.52 -1.003,0.52 0.497,0 1.003,0 1.673,0.154 0,0 -1.003,0.675 -1.509,0.675 -0.496,0 -2.173,0.501 -2.674,0.665 -0.337,0.328 -1.677,1.34 -1.677,1.34 h -1.504 l 0.164,0.337 h 0.839 v 0.165 z"
   id="path3395"
   inkscape:connector-curvature="0"
   style="fill:#000000;fill-rule:evenodd" />
</g>
</svg>