<?xml version="1.0" encoding="UTF-8" standalone="no"?>
<svg
   xmlns:dc="http://purl.org/dc/elements/1.1/"
   xmlns:cc="http://creativecommons.org/ns#"
   xmlns:rdf="http://www.w3.org/1999/02/22-rdf-syntax-ns#"
   xmlns:svg="http://www.w3.org/2000/svg"
   xmlns="http://www.w3.org/2000/svg"
   xmlns:sodipodi="http://sodipodi.sourceforge.net/DTD/sodipodi-0.dtd"
   xmlns:inkscape="http://www.inkscape.org/namespaces/inkscape"
   version="1.1"
   id="Your_Icon"
   x="0px"
   y="0px"
   width="100px"
   height="100px"
   viewBox="5.0 -10.0 100.0 135.0"
   enable-background="new 0 0 100 100"
   xml:space="preserve"
   inkscape:version="0.48.5 r10040"
   sodipodi:docname="noun_26079_cc.svg"><metadata
   id="metadata5073"><rdf:RDF><cc:Work
       rdf:about=""><dc:format>image/svg+xml</dc:format><dc:type
         rdf:resource="http://purl.org/dc/dcmitype/StillImage" /><dc:title></dc:title></cc:Work></rdf:RDF></metadata><defs
   id="defs5071" /><sodipodi:namedview
   pagecolor="#ffffff"
   bordercolor="#666666"
   borderopacity="1"
   objecttolerance="10"
   gridtolerance="10"
   guidetolerance="10"
   inkscape:pageopacity="0"
   inkscape:pageshadow="2"
   inkscape:window-width="640"
   inkscape:window-height="480"
   id="namedview5069"
   showgrid="false"
   inkscape:zoom="2.36"
   inkscape:cx="50"
   inkscape:cy="50"
   inkscape:window-x="0"
   inkscape:window-y="0"
   inkscape:window-maximized="0"
   inkscape:current-layer="Your_Icon" />
<path
   fill="#000000"
   d="M30.612,69.352c0,0,0.013-0.07,0.046-0.198c0.033-0.127,0.077-0.315,0.149-0.548  c0.137-0.471,0.357-1.131,0.667-1.898c0.156-0.383,0.335-0.793,0.535-1.219c0.202-0.423,0.422-0.867,0.67-1.313  c0.244-0.448,0.512-0.9,0.796-1.349c0.287-0.446,0.592-0.891,0.913-1.324c0.324-0.424,0.655-0.844,1.006-1.231  c0.345-0.394,0.708-0.757,1.069-1.092c0.183-0.167,0.365-0.323,0.546-0.474c0.186-0.147,0.367-0.287,0.546-0.421  c0.185-0.123,0.363-0.245,0.537-0.36c0.178-0.105,0.353-0.207,0.519-0.297c0.341-0.179,0.656-0.323,0.946-0.422  c0.283-0.115,0.546-0.162,0.753-0.216c0.209-0.052,0.38-0.058,0.492-0.077c0.112-0.012,0.173-0.018,0.173-0.018  s-0.053,0.035-0.151,0.101c-0.101,0.063-0.247,0.152-0.427,0.273c-0.18,0.129-0.396,0.268-0.632,0.458  c-0.239,0.18-0.497,0.403-0.777,0.644c-0.135,0.125-0.278,0.255-0.424,0.39c-0.143,0.141-0.291,0.283-0.441,0.435  c-0.147,0.153-0.298,0.312-0.454,0.474c-0.148,0.172-0.309,0.332-0.461,0.509c-0.309,0.355-0.621,0.728-0.934,1.115  c-0.311,0.388-0.622,0.785-0.924,1.195c-0.312,0.405-0.605,0.824-0.902,1.233c-0.29,0.417-0.574,0.83-0.851,1.227  c-0.549,0.8-1.057,1.558-1.497,2.213c-0.437,0.654-0.81,1.202-1.073,1.586c-0.126,0.194-0.236,0.344-0.306,0.446  C30.65,69.297,30.612,69.352,30.612,69.352z"
   id="path5043" />
<path
   fill="#000000"
   d="M35.794,66.03c0,0,0.006-0.021,0.014-0.061c0.008-0.034,0.028-0.093,0.038-0.153  c0.001-0.031-0.001-0.062-0.006-0.094c-0.006-0.025-0.007-0.057-0.011-0.096c-0.008-0.071-0.015-0.148-0.023-0.236  c-0.006-0.089-0.013-0.176-0.011-0.286c0-0.105,0.01-0.226,0.026-0.344c0.021-0.124,0.045-0.251,0.088-0.386  c0.037-0.131,0.096-0.263,0.158-0.389c0.071-0.126,0.142-0.252,0.233-0.358c0.088-0.106,0.184-0.205,0.287-0.281  c0.053-0.037,0.098-0.08,0.151-0.11c0.054-0.027,0.104-0.058,0.157-0.079c0.051-0.023,0.101-0.045,0.15-0.062  c0.051-0.014,0.101-0.026,0.148-0.033c0.096-0.015,0.183-0.029,0.263-0.025s0.153,0.021,0.21,0.031  c0.058,0.009,0.106,0.028,0.137,0.035c0.032,0.012,0.049,0.021,0.049,0.021s-0.006,0.02-0.017,0.059  c-0.014,0.033-0.028,0.091-0.053,0.15c-0.022,0.059-0.049,0.132-0.081,0.204c-0.029,0.073-0.061,0.156-0.097,0.244  c-0.036,0.078-0.072,0.164-0.105,0.251c-0.038,0.08-0.075,0.165-0.109,0.248c-0.016,0.043-0.04,0.078-0.058,0.12  c-0.015,0.044-0.032,0.084-0.055,0.123c-0.041,0.076-0.075,0.16-0.12,0.238c-0.04,0.085-0.088,0.158-0.136,0.248  c-0.05,0.081-0.1,0.172-0.158,0.255c-0.056,0.092-0.118,0.177-0.186,0.269c-0.063,0.084-0.14,0.174-0.215,0.247  c-0.042,0.038-0.079,0.075-0.117,0.106c-0.043,0.031-0.086,0.062-0.126,0.084c-0.039,0.023-0.076,0.048-0.125,0.063  c-0.044,0.014-0.082,0.023-0.113,0.029c-0.059,0.006-0.105-0.018-0.138-0.02C35.812,66.034,35.794,66.03,35.794,66.03z"
   id="path5045" />
<path
   fill="#000000"
   d="M53.633,23.436c0,0-0.244,0.028-0.666,0.068c-0.42,0.038-1.015,0.084-1.718,0.131  c-0.698,0.047-1.511,0.102-2.382,0.16c-0.215,0.017-0.434,0.033-0.654,0.05c-0.222,0.018-0.443,0.042-0.668,0.057  c-0.448,0.049-0.901,0.084-1.351,0.148c-0.453,0.045-0.898,0.124-1.338,0.193c-0.221,0.034-0.434,0.085-0.649,0.119  c-0.213,0.042-0.421,0.095-0.63,0.134c-0.205,0.051-0.407,0.103-0.604,0.15c-0.196,0.057-0.39,0.112-0.577,0.166  c-0.186,0.06-0.366,0.12-0.542,0.177c-0.173,0.064-0.342,0.125-0.505,0.185c-0.16,0.066-0.313,0.133-0.461,0.194  c-0.149,0.058-0.28,0.136-0.414,0.194c-0.065,0.031-0.13,0.06-0.191,0.087c-0.061,0.035-0.119,0.065-0.174,0.096  c-0.112,0.06-0.217,0.116-0.311,0.166c-0.188,0.11-0.335,0.197-0.437,0.257c-0.104,0.058-0.16,0.09-0.16,0.09  s0.033-0.061,0.095-0.175c0.065-0.108,0.151-0.284,0.285-0.482c0.068-0.098,0.146-0.205,0.233-0.321  c0.083-0.12,0.184-0.238,0.293-0.358s0.229-0.256,0.359-0.382c0.136-0.124,0.277-0.254,0.426-0.389  c0.154-0.123,0.319-0.247,0.491-0.377c0.173-0.125,0.359-0.234,0.548-0.36c0.191-0.116,0.395-0.214,0.6-0.328  c0.208-0.106,0.425-0.192,0.644-0.292c0.443-0.174,0.906-0.336,1.386-0.451c0.476-0.122,0.965-0.21,1.454-0.272  c0.978-0.12,1.96-0.123,2.869-0.035c0.455,0.038,0.892,0.107,1.304,0.183c0.411,0.08,0.798,0.174,1.152,0.274  c0.706,0.201,1.281,0.433,1.679,0.619C53.416,23.298,53.633,23.436,53.633,23.436z"
   id="path5047" />
<path
   fill="#000000"
   d="M49.998,20.348c0,0-0.099,0.027-0.264,0.061c-0.084,0.017-0.183,0.041-0.299,0.058  c-0.113,0.02-0.242,0.048-0.382,0.067c-0.276,0.045-0.597,0.088-0.936,0.131c-0.339,0.045-0.698,0.083-1.052,0.138  c-0.179,0.016-0.352,0.055-0.525,0.077c-0.172,0.029-0.341,0.059-0.506,0.088c-0.162,0.035-0.319,0.068-0.468,0.102  c-0.146,0.041-0.284,0.083-0.419,0.114c-0.129,0.045-0.249,0.085-0.354,0.124c-0.111,0.031-0.196,0.08-0.275,0.115  c-0.154,0.07-0.253,0.107-0.253,0.107s0.048-0.099,0.15-0.264c0.052-0.081,0.11-0.194,0.204-0.282  c0.09-0.094,0.189-0.211,0.312-0.318c0.123-0.095,0.262-0.201,0.413-0.3c0.155-0.083,0.32-0.175,0.497-0.251  c0.175-0.062,0.359-0.143,0.548-0.185c0.188-0.046,0.384-0.092,0.576-0.115c0.195-0.025,0.39-0.045,0.58-0.044  c0.191-0.009,0.379,0.002,0.56,0.015c0.18,0.011,0.354,0.044,0.518,0.07c0.164,0.032,0.318,0.067,0.459,0.108  c0.282,0.082,0.512,0.173,0.671,0.251C49.911,20.289,49.998,20.348,49.998,20.348z"
   id="path5049" />
<path
   fill="#000000"
   d="M72.088,48.309c0,0-0.052-0.005-0.152-0.012c-0.092-0.011-0.237-0.01-0.411-0.022  c-0.18-0.006-0.388-0.02-0.626-0.025c-0.122,0-0.248-0.008-0.379-0.011c-0.132,0-0.27,0-0.414,0  c-0.141-0.001-0.29-0.007-0.444,0.003c-0.152,0.008-0.307,0.005-0.466,0.008c-0.162,0.018-0.326,0.021-0.491,0.029  c-0.084,0.007-0.166,0.01-0.25,0.011c-0.084,0.009-0.169,0.02-0.257,0.027c-0.17,0.021-0.343,0.032-0.519,0.043  c-0.172,0.026-0.35,0.057-0.526,0.075c-0.354,0.031-0.708,0.122-1.064,0.179c-0.181,0.017-0.356,0.078-0.532,0.118  c-0.175,0.048-0.354,0.08-0.527,0.118c-0.348,0.104-0.688,0.209-1.028,0.293c-0.329,0.113-0.65,0.229-0.965,0.325  c-0.161,0.037-0.307,0.104-0.452,0.162c-0.147,0.055-0.29,0.107-0.427,0.16c-0.273,0.102-0.542,0.173-0.764,0.277  c-0.228,0.092-0.43,0.17-0.601,0.229c-0.172,0.061-0.313,0.099-0.408,0.131c-0.097,0.024-0.151,0.04-0.151,0.04  s0.031-0.052,0.087-0.146c0.057-0.09,0.14-0.231,0.254-0.396c0.111-0.168,0.252-0.364,0.418-0.588  c0.166-0.233,0.386-0.442,0.623-0.681c0.118-0.118,0.246-0.234,0.377-0.361c0.134-0.124,0.271-0.247,0.427-0.354  c0.305-0.216,0.631-0.449,0.984-0.66c0.179-0.094,0.364-0.182,0.554-0.272c0.188-0.087,0.382-0.185,0.58-0.255  c0.201-0.065,0.402-0.136,0.61-0.192c0.203-0.054,0.407-0.128,0.619-0.157c0.424-0.058,0.842-0.15,1.264-0.137  c0.207-0.007,0.415-0.007,0.62,0c0.205,0.019,0.407,0.039,0.603,0.067c0.097,0.014,0.198,0.026,0.294,0.041  c0.094,0.017,0.189,0.042,0.283,0.065c0.187,0.05,0.372,0.09,0.549,0.142c0.347,0.129,0.672,0.236,0.961,0.394  c0.146,0.077,0.285,0.142,0.41,0.218c0.126,0.08,0.249,0.154,0.358,0.231c0.22,0.148,0.405,0.3,0.55,0.43  C71.949,48.119,72.088,48.309,72.088,48.309z"
   id="path5051" />
<path
   fill="#000000"
   d="M69.749,49.47c0,0-0.013,0.084-0.062,0.213c-0.044,0.134-0.124,0.31-0.245,0.498  c-0.122,0.191-0.286,0.388-0.49,0.566c-0.105,0.089-0.213,0.175-0.332,0.248c-0.121,0.069-0.244,0.141-0.374,0.188l-0.201,0.073  c-0.063,0.02-0.133,0.031-0.2,0.047c-0.135,0.033-0.271,0.038-0.4,0.038c-0.127,0.008-0.254-0.016-0.372-0.038  c-0.057-0.014-0.113-0.023-0.168-0.039c-0.052-0.021-0.104-0.042-0.154-0.061c-0.099-0.044-0.184-0.079-0.259-0.128  c-0.069-0.049-0.134-0.1-0.181-0.14c-0.1-0.081-0.148-0.138-0.148-0.138s0.07-0.026,0.184-0.058  c0.056-0.012,0.124-0.031,0.201-0.045c0.07-0.017,0.155-0.047,0.24-0.067c0.046-0.01,0.089-0.021,0.137-0.03  c0.045-0.015,0.094-0.03,0.139-0.046c0.096-0.026,0.193-0.051,0.292-0.089c0.052-0.019,0.104-0.031,0.152-0.047  c0.05-0.016,0.102-0.04,0.152-0.057l0.154-0.053l0.153-0.065c0.105-0.031,0.204-0.089,0.311-0.126  c0.103-0.045,0.206-0.091,0.302-0.134c0.102-0.046,0.199-0.091,0.29-0.134c0.097-0.043,0.188-0.084,0.269-0.121  c0.173-0.076,0.324-0.142,0.434-0.187C69.68,49.496,69.749,49.47,69.749,49.47z"
   id="path5053" />
<path
   fill="#000000"
   d="M74.628,67.775c0,0-0.056-0.01-0.16-0.024c-0.105-0.011-0.259-0.03-0.456-0.027  c-0.196,0.007-0.438,0.022-0.7,0.106c-0.258,0.078-0.559,0.226-0.746,0.52c-0.096,0.143-0.159,0.313-0.185,0.503  c-0.021,0.184-0.011,0.402,0.027,0.583c0.03,0.107,0.05,0.226,0.079,0.33c0.035,0.087,0.072,0.177,0.107,0.266  c0.051,0.091,0.102,0.179,0.15,0.269c0.06,0.087,0.122,0.166,0.183,0.251c0.259,0.32,0.593,0.581,0.951,0.812  c0.362,0.226,0.749,0.421,1.152,0.581c0.198,0.082,0.405,0.15,0.603,0.212c0.104,0.032,0.2,0.059,0.3,0.082l0.017,0.003l0.01,0.002  c-0.01-0.001,0.03,0.004-0.024-0.002l0.004,0.001l0.043,0.005l0.082,0.012l0.042,0.008c0.006-0.004,0.008-0.006,0.014-0.006  c0.008,0,0.014,0,0.023,0.002c0.014-0.002,0.03-0.004,0.04-0.006c0,0,0.004,0,0.01,0.002c0.005-0.002,0.007-0.008,0.013-0.008  c0.008,0.002,0.014-0.005,0.02-0.018c0.004-0.009,0.014-0.016,0.02-0.028c0.012-0.036,0.028-0.058,0.038-0.11  c0.057-0.172,0.089-0.419,0.112-0.655c0.023-0.242,0.053-0.487,0.082-0.729c0.016-0.123,0.033-0.239,0.051-0.359l0.029-0.167  l0.023-0.17c0.066-0.413,0.029-0.828-0.092-1.174c-0.121-0.347-0.348-0.604-0.581-0.761c-0.233-0.154-0.468-0.232-0.663-0.266  c-0.192-0.037-0.349-0.041-0.454-0.039C74.687,67.775,74.628,67.775,74.628,67.775z M74.628,67.775c0,0,0.059-0.002,0.163-0.004  c0.105-0.006,0.26,0.002,0.456,0.025c0.199,0.021,0.436,0.086,0.69,0.218c0.252,0.135,0.524,0.368,0.714,0.727  c0.187,0.358,0.299,0.815,0.306,1.305l0.004,0.171v0.18c-0.002,0.113,0.004,0.229,0.008,0.346c0.012,0.237,0.021,0.479,0.035,0.726  c0.004,0.255,0.016,0.515-0.031,0.837c-0.008,0.076-0.038,0.17-0.06,0.252c-0.016,0.046-0.041,0.092-0.062,0.139  c-0.02,0.046-0.045,0.093-0.082,0.14c-0.03,0.043-0.062,0.09-0.104,0.128c-0.041,0.035-0.084,0.067-0.127,0.103  c-0.09,0.055-0.18,0.087-0.273,0.108c-0.047,0.009-0.096,0.016-0.143,0.021l-0.073,0.004l-0.043-0.001l-0.082-0.003l-0.041-0.002  h-0.006l-0.035-0.005l-0.01-0.002l-0.023-0.003c-0.124-0.021-0.243-0.046-0.36-0.072c-0.239-0.055-0.468-0.136-0.693-0.225  c-0.451-0.187-0.888-0.427-1.285-0.74c-0.396-0.312-0.754-0.703-1.016-1.161c-0.063-0.119-0.123-0.234-0.178-0.356  c-0.045-0.126-0.09-0.249-0.132-0.374c-0.029-0.136-0.057-0.271-0.081-0.401c-0.014-0.124-0.014-0.233-0.023-0.347  c-0.012-0.271,0.018-0.499,0.081-0.73c0.063-0.225,0.173-0.425,0.308-0.571c0.275-0.293,0.6-0.396,0.869-0.45  c0.273-0.05,0.518-0.055,0.714-0.046C74.406,67.723,74.628,67.775,74.628,67.775z"
   id="path5055" />
<path
   fill="#000000"
   d="M27.487,32.212c0.044,0.356,0.084,0.713,0.116,1.07c0.037,0.355,0.068,0.713,0.095,1.07l-0.075-0.189  c0.284,0.218,0.596,0.417,0.903,0.599c0.309,0.182,0.628,0.331,0.946,0.453c0.633,0.241,1.299,0.346,1.833,0.135  c0.269-0.102,0.506-0.27,0.702-0.511c0.046-0.064,0.101-0.117,0.144-0.188l0.068-0.102l0.034-0.05l0.001-0.004  c0.013-0.022-0.016,0.026-0.011,0.021l0.004-0.009l0.01-0.017l0.017-0.033l0.146-0.264c0.043-0.085,0.109-0.183,0.134-0.257  c0.032-0.078,0.065-0.154,0.099-0.231l0.052-0.113l0.039-0.124l0.082-0.248l0.049-0.244c0.054-0.327,0.07-0.646-0.008-0.957  c-0.073-0.309-0.204-0.617-0.386-0.919c-0.179-0.3-0.402-0.592-0.642-0.884l-0.37-0.447l-0.094-0.114l-0.048-0.058l-0.006-0.007  c0.058,0.061,0.015,0.015,0.026,0.027l-0.004-0.003l-0.012-0.013l-0.025-0.025l-0.102-0.105l-0.049-0.054l-0.025-0.025l-0.017-0.009  c-0.047-0.026-0.083-0.064-0.133-0.096c-0.058-0.022-0.112-0.06-0.174-0.079c-0.061-0.009-0.122-0.034-0.188-0.039  c-0.065,0.004-0.131-0.008-0.2-0.001c-0.275,0.023-0.57,0.163-0.848,0.357c-0.071,0.045-0.14,0.097-0.205,0.156  c-0.066,0.058-0.135,0.112-0.201,0.173c-0.125,0.132-0.26,0.254-0.379,0.4c-0.253,0.273-0.468,0.599-0.689,0.922  c-0.109,0.164-0.205,0.337-0.312,0.506L27.487,32.212z M27.487,32.212c0.052-0.202,0.108-0.404,0.168-0.606  c0.067-0.196,0.132-0.396,0.21-0.591c0.155-0.387,0.335-0.767,0.555-1.123c0.211-0.364,0.472-0.691,0.777-0.983  c0.302-0.292,0.663-0.55,1.1-0.65c0.108-0.026,0.223-0.032,0.336-0.044c0.113-0.005,0.23,0.017,0.345,0.028  c0.114,0.023,0.226,0.069,0.339,0.107c0.113,0.051,0.229,0.13,0.34,0.202l0.042,0.027l0.026,0.024l0.052,0.048l0.108,0.095  l0.026,0.023l0.014,0.014l0.042,0.042l0.049,0.051l0.099,0.104c0.132,0.139,0.27,0.276,0.404,0.427  c0.27,0.295,0.547,0.606,0.789,0.984c0.239,0.377,0.458,0.812,0.576,1.312c0.127,0.499,0.118,1.042,0.028,1.531  c-0.024,0.122-0.05,0.246-0.078,0.364l-0.113,0.34l-0.059,0.169l-0.073,0.164l-0.152,0.323c-0.052,0.119-0.101,0.182-0.152,0.275  l-0.154,0.258l-0.053,0.09l-0.051,0.071l-0.101,0.142c-0.065,0.099-0.15,0.18-0.225,0.269c-0.316,0.344-0.72,0.607-1.144,0.723  c-0.425,0.124-0.854,0.118-1.25,0.034c-0.399-0.082-0.769-0.234-1.115-0.424c-0.349-0.187-0.669-0.418-0.976-0.665  c-0.31-0.248-0.592-0.517-0.867-0.823l-0.083-0.095l0.007-0.094c0.026-0.357,0.058-0.715,0.094-1.07  C27.405,32.925,27.443,32.568,27.487,32.212z"
   id="path5057" />
<path
   fill="#000000"
   d="M42.965,83.013c0,0-0.072,0.056-0.202,0.169c-0.129,0.113-0.319,0.281-0.536,0.528  c-0.213,0.246-0.467,0.562-0.675,0.986c-0.209,0.409-0.37,0.961-0.256,1.497c0.05,0.267,0.182,0.509,0.347,0.729  c0.19,0.255,0.377,0.472,0.593,0.688c0.429,0.434,0.93,0.816,1.468,1.095c0.536,0.284,1.111,0.45,1.645,0.424  c0.271,0.004,0.521-0.077,0.767-0.158l0.177-0.098c0.061-0.029,0.122-0.051,0.177-0.098l0.171-0.119l0.042-0.029l0.021-0.016  l0.006-0.004c-0.016,0.016,0.044-0.035-0.033,0.031l0.013-0.012l0.103-0.095l0.204-0.186c0.042-0.034,0.047-0.053,0.068-0.074  l0.054-0.07c0.077-0.073,0.142-0.198,0.219-0.306c0.12-0.23,0.218-0.479,0.268-0.776c0.097-0.601,0.039-1.335-0.038-2.082  c-0.039-0.37-0.072-0.756-0.101-1.132c-0.008-0.196-0.024-0.382-0.022-0.574c-0.001-0.097-0.001-0.191-0.002-0.285  c0.008,0.07,0.002,0.014,0.004,0.028v-0.009l-0.002-0.017l-0.001-0.036l-0.004-0.065l-0.003-0.062  c-0.002-0.008-0.004-0.016-0.005-0.023c-0.001-0.159-0.153-0.358-0.379-0.458c-0.225-0.102-0.484-0.146-0.733-0.162  c-0.503-0.027-0.979,0.045-1.39,0.129c-0.414,0.086-0.769,0.195-1.06,0.292c-0.291,0.096-0.515,0.189-0.668,0.249  C43.047,82.979,42.965,83.013,42.965,83.013z M42.965,83.013c0,0,0.081-0.035,0.232-0.105c0.151-0.064,0.376-0.155,0.661-0.271  c0.285-0.118,0.637-0.249,1.041-0.394c0.408-0.134,0.869-0.285,1.402-0.366c0.269-0.037,0.555-0.066,0.871-0.002  c0.159,0.034,0.33,0.087,0.493,0.215c0.165,0.126,0.313,0.296,0.398,0.566c0.058,0.172,0.048,0.154,0.082,0.326  c0.016,0.083,0.033,0.165,0.05,0.245c0.027,0.16,0.076,0.331,0.116,0.496c0.095,0.343,0.193,0.695,0.294,1.05  c0.198,0.729,0.417,1.556,0.363,2.546c-0.026,0.493-0.168,1.013-0.391,1.476c-0.124,0.222-0.243,0.44-0.422,0.641l-0.127,0.15  c-0.041,0.047-0.091,0.107-0.119,0.132l-0.204,0.188l-0.102,0.092l-0.014,0.014c-0.081,0.068-0.028,0.021-0.047,0.039l-0.009,0.006  l-0.035,0.023l-0.069,0.046l-0.277,0.186c-0.185,0.123-0.397,0.197-0.595,0.283l-0.315,0.083c-0.104,0.024-0.21,0.056-0.316,0.058  c-0.214,0.016-0.424,0.033-0.629,0.003c-0.831-0.083-1.551-0.474-2.127-0.962c-0.58-0.486-1.043-1.062-1.419-1.646  c-0.189-0.292-0.359-0.61-0.49-0.889c-0.156-0.312-0.263-0.659-0.278-0.995c-0.017-0.336,0.043-0.648,0.133-0.919  c0.092-0.27,0.216-0.5,0.34-0.703c0.257-0.402,0.523-0.701,0.752-0.935C42.667,83.223,42.965,83.013,42.965,83.013z"
   id="path5059" />
<path
   fill="#000000"
   d="M86.715,52.896c-1.393-4.621-2.891-8.574-4.427-12.184c-0.146-0.428-0.322-0.872-0.534-1.326  c-0.1-0.23-0.217-0.455-0.335-0.684c-1.109-2.502-2.232-4.859-3.342-7.185c-1.237-2.604-2.522-5.299-3.754-8.135  c-0.567-1.297-1.097-2.639-1.613-3.932c-3.253-8.223-6.62-16.725-20.392-18.389c-5.979-0.722-9.233-1.066-11.558-1.066  c-4.163,0-5.436,1.185-7.968,3.546c-0.216,0.202-0.445,0.413-0.686,0.636c-2.446,2.253-5.977,7.081-8.993,12.298  c-2.016,3.486-5.427,9.98-5.616,14.293c-0.153,3.475-0.067,8.365,0.01,12.677c0.063,3.647,0.125,7.089-0.001,8.189  c-0.077,0.672-0.315,1.604-0.591,2.684c-0.674,2.642-1.597,6.261-1.281,10.349c0.33,4.222,3.331,11.489,6.121,17.976  c0.538,1.245,0.96,2.231,1.135,2.706l0.083,0.228l0.154,0.176c0.127,0.146,3.183,3.621,7.746,7.144  c6.192,4.78,11.917,7.203,17.02,7.203c0.001,0,0.002,0,0.002,0c0.49,0,0.981-0.021,1.459-0.068  c12.324-1.188,27.444-13.01,29.992-16.55c0.612-0.844,3.757-5.367,6.014-11.533C87.938,64.902,88.393,58.491,86.715,52.896z   M66.634,11.776c1.219,1.86,2.176,3.936,3.083,6.133c-0.12,0.007-0.248,0.011-0.381,0.018c-0.104-0.008-0.21-0.018-0.318-0.026  c-0.103-0.033-0.212-0.035-0.308-0.083c-0.195-0.066-0.35-0.202-0.491-0.374c-0.036-0.05-0.073-0.088-0.109-0.145l-0.1-0.167  c-0.064-0.13-0.134-0.253-0.198-0.403c-0.137-0.309-0.274-0.625-0.415-0.941c-0.078-0.174-0.154-0.326-0.234-0.481l-0.034-0.067  l-0.021-0.047L67.066,15.1c-0.029-0.063-0.066-0.115-0.084-0.188c-0.099-0.265-0.175-0.552-0.223-0.85  c-0.052-0.295-0.077-0.597-0.099-0.887c-0.018-0.291-0.027-0.573-0.028-0.836C66.633,12.138,66.633,11.952,66.634,11.776z   M23.679,81.513c-0.378-0.883-0.822-1.911-1.291-3.026c0.411,0.196,0.864,0.431,1.301,0.739c0.485,0.34,0.945,0.779,1.213,1.323  c0.139,0.269,0.222,0.563,0.265,0.869l0.021,0.231l0.001,0.008l0.001,0.004c0,0.004,0-0.006,0-0.012v0.016l0.001,0.036l0.002,0.067  l0.003,0.139c0.006,0.186,0.012,0.364,0.017,0.54c0.022,0.364,0.008,0.683,0.008,0.997c0.01,0.312-0.019,0.609-0.028,0.888  c-0.004,0.066-0.009,0.137-0.011,0.202c-0.001,0.006-0.001,0.01-0.002,0.016c-0.175-0.187-0.312-0.331-0.404-0.437  C24.555,83.548,24.177,82.669,23.679,81.513z M77.706,81.862c-2.141,2.972-16.741,14.527-28.527,15.662  c-0.42,0.041-0.852,0.061-1.283,0.061c0,0-0.001,0-0.002,0c-9.425-0.002-19.368-9.548-22.359-12.662  c0.053-0.15,0.108-0.307,0.143-0.481c0.065-0.285,0.152-0.592,0.19-0.932c0.046-0.334,0.102-0.702,0.109-1.051  c0.008-0.178,0.017-0.357,0.024-0.543l0.006-0.135l0.004-0.07l0.002-0.034v-0.018v-0.035c-0.006-0.109-0.012-0.218-0.016-0.323  c-0.036-0.437-0.161-0.875-0.353-1.261c-0.193-0.385-0.448-0.71-0.728-0.975c-0.276-0.263-0.575-0.467-0.869-0.627  c-0.591-0.322-1.169-0.488-1.666-0.572c-0.093-0.018-0.181-0.03-0.269-0.041c-1.312-3.146-2.769-6.852-3.621-9.879  c0.014-0.078,0.026-0.151,0.042-0.23c0.087-0.496,0.196-1.054,0.319-1.652c0.121-0.599,0.273-1.239,0.433-1.91  c0.178-0.665,0.352-1.364,0.566-2.069c0.087-0.362,0.216-0.712,0.315-1.082c0.123-0.355,0.229-0.729,0.364-1.089  c0.069-0.181,0.139-0.363,0.207-0.544c0.068-0.183,0.155-0.352,0.231-0.531c0.148-0.364,0.34-0.69,0.519-1.036  c0.088-0.172,0.197-0.326,0.294-0.49c0.103-0.16,0.199-0.328,0.306-0.486l0.33-0.455l0.164-0.233  c0.058-0.069,0.118-0.141,0.177-0.211c0.237-0.287,0.467-0.573,0.722-0.825c0.123-0.132,0.247-0.261,0.369-0.39  c0.13-0.124,0.261-0.237,0.39-0.354c0.129-0.115,0.258-0.23,0.385-0.343c0.135-0.105,0.268-0.207,0.398-0.308  c0.132-0.104,0.264-0.201,0.391-0.301c0.136-0.087,0.27-0.174,0.402-0.261c0.519-0.365,1.049-0.624,1.533-0.882  c0.25-0.11,0.489-0.22,0.717-0.317c0.115-0.047,0.225-0.104,0.334-0.144c0.112-0.036,0.219-0.078,0.323-0.113  c0.42-0.139,0.781-0.286,1.088-0.36c0.614-0.168,0.966-0.264,0.966-0.264l-0.022-0.199c0,0-0.363,0.041-0.999,0.115  c-0.319,0.021-0.699,0.119-1.14,0.205c-0.11,0.021-0.225,0.047-0.342,0.071c-0.116,0.027-0.234,0.066-0.356,0.101  c-0.244,0.071-0.501,0.147-0.771,0.227c-0.526,0.201-1.107,0.398-1.692,0.708c-0.147,0.073-0.297,0.146-0.45,0.22  c-0.145,0.091-0.293,0.181-0.443,0.273c-0.15,0.09-0.302,0.184-0.455,0.277c-0.147,0.105-0.296,0.214-0.446,0.323  c-0.15,0.108-0.302,0.215-0.453,0.334c-0.144,0.124-0.291,0.249-0.437,0.375c-0.302,0.244-0.574,0.535-0.855,0.823  c-0.071,0.074-0.142,0.144-0.211,0.217l-0.198,0.235l-0.398,0.473c-0.13,0.161-0.249,0.336-0.374,0.502  c-0.122,0.17-0.255,0.335-0.364,0.518c-0.231,0.353-0.464,0.708-0.672,1.079c-0.104,0.187-0.217,0.364-0.314,0.554  c-0.099,0.192-0.196,0.38-0.292,0.569c-0.102,0.187-0.185,0.38-0.273,0.576c-0.087,0.191-0.174,0.383-0.252,0.579  c-0.15,0.394-0.298,0.782-0.413,1.18c-0.194,0.629-0.326,1.256-0.427,1.865c-0.048-3.13,0.664-5.928,1.251-8.228  c0.302-1.181,0.562-2.199,0.659-3.067c0.149-1.292,0.092-4.506,0.021-8.574c-0.076-4.271-0.162-9.114-0.013-12.498  c0.117-2.666,2.079-7.529,5.25-13.01c2.859-4.945,6.29-9.661,8.54-11.733c0.247-0.226,0.478-0.44,0.696-0.645  c2.407-2.242,3.217-2.996,6.628-2.996c2.2,0,5.349,0.33,11.102,1.022c-0.603,0.097-1.229,0.232-1.866,0.406  c-0.733,0.216-1.481,0.475-2.229,0.794c-0.752,0.305-1.501,0.65-2.251,0.996c-0.374,0.177-0.744,0.365-1.112,0.548  c-0.363,0.201-0.73,0.384-1.085,0.593c-0.714,0.407-1.401,0.843-2.046,1.303c-0.324,0.229-0.64,0.456-0.939,0.698  c-0.152,0.118-0.301,0.234-0.448,0.35c-0.146,0.117-0.284,0.245-0.423,0.365c-0.279,0.241-0.548,0.475-0.797,0.723  c-0.248,0.245-0.497,0.468-0.715,0.712c-0.222,0.241-0.437,0.463-0.633,0.687c-0.191,0.229-0.374,0.446-0.544,0.651  c-0.339,0.41-0.603,0.802-0.831,1.11c-0.419,0.652-0.658,1.026-0.658,1.026l0.137,0.124c0,0,0.271-0.333,0.747-0.912  c0.126-0.136,0.266-0.286,0.418-0.45c0.151-0.164,0.307-0.351,0.494-0.522c0.183-0.178,0.378-0.369,0.583-0.567  c0.21-0.193,0.438-0.384,0.672-0.588c0.229-0.21,0.491-0.396,0.75-0.602c0.258-0.209,0.539-0.402,0.826-0.602  c0.284-0.204,0.585-0.397,0.894-0.591c0.304-0.203,0.624-0.388,0.953-0.573c0.649-0.376,1.342-0.72,2.048-1.056  c0.352-0.17,0.716-0.317,1.076-0.478c0.366-0.146,0.732-0.296,1.101-0.434c0.74-0.27,1.488-0.509,2.234-0.702  c0.744-0.191,1.477-0.379,2.187-0.562c0.708-0.184,1.391-0.383,2.037-0.568c0.653-0.188,1.267-0.363,1.834-0.526  c0.573-0.165,1.098-0.315,1.562-0.449c0.119-0.035,0.233-0.068,0.345-0.102c4.942,1.327,7.955,3.811,10.135,6.96  c-0.1,0.256-0.203,0.567-0.295,0.936c-0.068,0.272-0.124,0.574-0.17,0.901c-0.031,0.328-0.057,0.683-0.035,1.06  c0.006,0.092,0.012,0.187,0.018,0.282c0.008,0.096,0.026,0.193,0.044,0.292c0.021,0.196,0.079,0.395,0.136,0.593  c0.025,0.101,0.072,0.197,0.109,0.295l0.061,0.147l0.031,0.073c-0.002,0.002,0.016,0.035,0.023,0.05  c0.076,0.155,0.152,0.315,0.216,0.461c0.14,0.294,0.279,0.629,0.456,0.953c0.17,0.326,0.379,0.663,0.673,0.933  c0.289,0.27,0.651,0.449,0.98,0.472c0.084,0.017,0.16,0.009,0.234,0.008c0.08-0.005,0.154-0.007,0.229-0.013  c0.139-0.029,0.271-0.064,0.397-0.096c0.186-0.074,0.357-0.142,0.506-0.221c0.276,0.683,0.552,1.376,0.83,2.082  c0.521,1.314,1.061,2.675,1.643,4.018c1.25,2.876,2.543,5.59,3.795,8.215c0.074,0.157,0.15,0.312,0.223,0.468  c-0.087-0.057-0.17-0.109-0.258-0.167l-0.313-0.2l-0.325-0.184c-0.215-0.124-0.431-0.248-0.649-0.372  c-0.435-0.23-0.871-0.463-1.312-0.695c-0.443-0.209-0.886-0.424-1.327-0.624c-0.449-0.183-0.893-0.373-1.333-0.545  c-0.451-0.158-0.891-0.318-1.331-0.464c-0.441-0.129-0.878-0.255-1.308-0.379c-0.429-0.125-0.855-0.209-1.271-0.312  c-0.207-0.05-0.41-0.098-0.615-0.145c-0.203-0.038-0.405-0.074-0.606-0.11c-0.398-0.072-0.784-0.141-1.156-0.208  c-0.375-0.052-0.738-0.101-1.084-0.146c-0.697-0.108-1.339-0.14-1.902-0.195c-0.282-0.022-0.544-0.048-0.791-0.062  c-0.243-0.009-0.473-0.017-0.674-0.023c-0.811-0.029-1.275-0.045-1.275-0.045l-0.023,0.301c0,0,0.454,0.101,1.247,0.276  c0.397,0.084,0.878,0.188,1.423,0.333c0.549,0.141,1.167,0.285,1.831,0.49c0.333,0.097,0.68,0.198,1.04,0.304  c0.354,0.119,0.72,0.242,1.098,0.367c0.188,0.064,0.379,0.128,0.569,0.195c0.191,0.071,0.386,0.146,0.577,0.219  c0.39,0.154,0.793,0.289,1.191,0.466c0.396,0.173,0.801,0.349,1.206,0.528c0.403,0.199,0.809,0.391,1.216,0.588  c0.405,0.208,0.808,0.433,1.214,0.648c0.396,0.232,0.788,0.477,1.185,0.716c0.381,0.268,0.771,0.513,1.141,0.796  c0.179,0.145,0.361,0.288,0.542,0.432l0.27,0.217l0.258,0.23c0.172,0.152,0.342,0.303,0.514,0.453  c0.166,0.156,0.331,0.311,0.494,0.463c0.329,0.302,0.637,0.621,0.953,0.916c0.611,0.61,1.21,1.188,1.751,1.776  c0.409,0.442,0.793,0.88,1.144,1.313c1.726,3.933,3.414,8.238,4.956,13.369C88.545,66.592,78.148,81.246,77.706,81.862z"
   id="path5061" />
<path
   fill="#000000"
   d="M70.818,82.128c-0.06-0.046-0.146-0.125-0.265-0.199c-0.231-0.159-0.581-0.35-1.033-0.491  c-0.451-0.137-1-0.227-1.595-0.182c-0.298,0.016-0.604,0.076-0.91,0.158c-0.306,0.093-0.614,0.212-0.906,0.368  c-0.295,0.153-0.573,0.342-0.832,0.549c-0.259,0.209-0.491,0.445-0.706,0.684c-0.102,0.127-0.204,0.248-0.297,0.372  c-0.091,0.126-0.176,0.254-0.257,0.378c-0.159,0.254-0.292,0.503-0.402,0.741c-0.107,0.239-0.201,0.46-0.266,0.664  c-0.067,0.203-0.123,0.384-0.154,0.534c-0.039,0.148-0.061,0.271-0.078,0.353c-0.014,0.082-0.021,0.124-0.021,0.124  s0.031-0.026,0.088-0.083c0.049-0.054,0.134-0.132,0.227-0.237c0.092-0.105,0.217-0.222,0.347-0.361  c0.127-0.144,0.28-0.291,0.44-0.455c0.075-0.082,0.162-0.164,0.248-0.248c0.091-0.08,0.171-0.174,0.269-0.252  c0.094-0.084,0.186-0.179,0.285-0.259c0.103-0.08,0.197-0.17,0.3-0.253c0.107-0.078,0.212-0.165,0.315-0.246  c0.111-0.072,0.22-0.154,0.331-0.23c0.225-0.144,0.449-0.295,0.688-0.411c0.234-0.136,0.479-0.231,0.719-0.337  c0.248-0.09,0.488-0.18,0.731-0.242c0.241-0.068,0.479-0.124,0.708-0.167c0.233-0.046,0.454-0.074,0.662-0.103  c0.416-0.046,0.78-0.069,1.036-0.079c0.134-0.004,0.235-0.006,0.306-0.006c0.071-0.002,0.11-0.002,0.11-0.002  S70.877,82.178,70.818,82.128z"
   id="path5063" />
<text
   x="0.0"
   y="117.5"
   font-size="5.0"
   font-weight="bold"
   font-family="Helvetica Neue, Helvetica, Arial-Unicode, Arial, Sans-serif"
   fill="#000000"
   id="text5065">Created by Nathan Stang</text>
<text
   x="0.0"
   y="122.5"
   font-size="5.0"
   font-weight="bold"
   font-family="Helvetica Neue, Helvetica, Arial-Unicode, Arial, Sans-serif"
   fill="#000000"
   id="text5067">from the Noun Project</text>
</svg>