<?xml version="1.0" encoding="UTF-8" standalone="no"?>
<svg
   xmlns:dc="http://purl.org/dc/elements/1.1/"
   xmlns:cc="http://creativecommons.org/ns#"
   xmlns:rdf="http://www.w3.org/1999/02/22-rdf-syntax-ns#"
   xmlns:svg="http://www.w3.org/2000/svg"
   xmlns="http://www.w3.org/2000/svg"
   xmlns:sodipodi="http://sodipodi.sourceforge.net/DTD/sodipodi-0.dtd"
   xmlns:inkscape="http://www.inkscape.org/namespaces/inkscape"
   version="1.1"
   id="Layer_1"
   x="0px"
   y="0px"
   width="100px"
   height="100px"
   viewBox="5.0 -10.0 100.0 135.0"
   enable-background="new 0 0 100 100"
   xml:space="preserve"
   inkscape:version="0.48.5 r10040"
   sodipodi:docname="noun_37059_cc.svg"><metadata
   id="metadata3077"><rdf:RDF><cc:Work
       rdf:about=""><dc:format>image/svg+xml</dc:format><dc:type
         rdf:resource="http://purl.org/dc/dcmitype/StillImage" /><dc:title></dc:title></cc:Work></rdf:RDF></metadata><defs
   id="defs3075" /><sodipodi:namedview
   pagecolor="#ffffff"
   bordercolor="#666666"
   borderopacity="1"
   objecttolerance="10"
   gridtolerance="10"
   guidetolerance="10"
   inkscape:pageopacity="0"
   inkscape:pageshadow="2"
   inkscape:window-width="640"
   inkscape:window-height="480"
   id="namedview3073"
   showgrid="false"
   inkscape:zoom="2.36"
   inkscape:cx="50"
   inkscape:cy="50"
   inkscape:window-x="0"
   inkscape:window-y="0"
   inkscape:window-maximized="0"
   inkscape:current-layer="Layer_1" />
<path
   fill-rule="evenodd"
   clip-rule="evenodd"
   d="M98.024,85.788c-3.19-6.39-7.971-7.75-14.625-3.859  c0.352-2.808,0.605-4.652,0.819-6.505c2.018-17.334-12.475-36.331-34.043-28.061c-4.382,1.679-8.777,3.449-13.553,3.765  c-5.334,0.353-10.121-1.407-13.027-5.68c-2.612-3.841,2.63-5.761,3.686-8.857c0.443-1.303,1.522-2.376,2.162-3.633  c3.415-6.696,7.446-13.218,7.267-21.84C27.137,15.892,22.2,23.554,18.27,32.066c-0.143,0.327-0.285,0.667-0.421,1.01  c-0.097,0.252-0.193,0.503-0.29,0.756c-0.292,0.805-0.523,1.583-0.604,2.201c-0.173,2.806,0.522,6.415-2.984,6.906  c-5.548,0.778-7.526,5.185-10.837,8.305c-3.858,3.64-0.91,8.177,1.437,8.581c7.174,1.24,9.769,7.624,14.798,11.113  c8.835,6.117,9.187,10.254,1.736,17.992c3.593,0.046,7.047,1.649,9.498-1.211c5.917-6.903,13.696-9.446,22.393-10.155  c-3.789-10.203-3.789-10.203-2.26-15.029c-0.871,8.848,5.95,14.05,10.8,21.274c-7.128-1.062-13.009-1.303-18.725,0.474  c-1.533,0.479-3.177,1.499-3.159,3.407c0.011,1.581,1.528,1.471,2.659,1.471c17.923,0.023,35.848,0,53.771,0.052  C99.022,89.22,99.184,88.118,98.024,85.788z"
   id="path3065" />
<path
   fill-rule="evenodd"
   clip-rule="evenodd"
   d="M15.917,35.833c1.621-5.236,1.134-16.559,0.786-21.932  c-0.071-0.957-0.144-1.935-0.219-2.946c-4.775,10.393-5,18.824-2.197,27.935c1.204-0.947,1.134-2.265,1.654-3.054L15.917,35.833z"
   id="path3067" />
<text
   x="0.0"
   y="117.5"
   font-size="5.0"
   font-weight="bold"
   font-family="Helvetica Neue, Helvetica, Arial-Unicode, Arial, Sans-serif"
   fill="#000000"
   id="text3069">Created by Ealancheliyan s</text>
<text
   x="0.0"
   y="122.5"
   font-size="5.0"
   font-weight="bold"
   font-family="Helvetica Neue, Helvetica, Arial-Unicode, Arial, Sans-serif"
   fill="#000000"
   id="text3071">from the Noun Project</text>
</svg>