<?xml version="1.0" encoding="UTF-8" standalone="no"?>
<svg
   xmlns:dc="http://purl.org/dc/elements/1.1/"
   xmlns:cc="http://creativecommons.org/ns#"
   xmlns:rdf="http://www.w3.org/1999/02/22-rdf-syntax-ns#"
   xmlns:svg="http://www.w3.org/2000/svg"
   xmlns="http://www.w3.org/2000/svg"
   xmlns:sodipodi="http://sodipodi.sourceforge.net/DTD/sodipodi-0.dtd"
   xmlns:inkscape="http://www.inkscape.org/namespaces/inkscape"
   version="1.1"
   id="Layer_1"
   x="0px"
   y="0px"
   width="100"
   height="100"
   viewBox="3.4 -14.5 145 195.75"
   enable-background="new 0 0 68 145"
   xml:space="preserve"
   inkscape:version="0.48.5 r10040"
   sodipodi:docname="noun_48571_cc.svg"><metadata
   id="metadata3991"><rdf:RDF><cc:Work
       rdf:about=""><dc:format>image/svg+xml</dc:format><dc:type
         rdf:resource="http://purl.org/dc/dcmitype/StillImage" /><dc:title></dc:title></cc:Work></rdf:RDF></metadata><defs
   id="defs3989" /><sodipodi:namedview
   pagecolor="#ffffff"
   bordercolor="#666666"
   borderopacity="1"
   objecttolerance="10"
   gridtolerance="10"
   guidetolerance="10"
   inkscape:pageopacity="0"
   inkscape:pageshadow="2"
   inkscape:window-width="640"
   inkscape:window-height="480"
   id="namedview3987"
   showgrid="false"
   inkscape:zoom="2.36"
   inkscape:cx="23.448277"
   inkscape:cy="50"
   inkscape:window-x="0"
   inkscape:window-y="0"
   inkscape:window-maximized="0"
   inkscape:current-layer="Layer_1" />
<path
   d="m 106.46628,138.756 c -18.702995,-0.295 -25.276995,-25.418 -27.204995,-35.877 0.738,-5.088 5.383,-10.146 7.354,-12.061 0.021,0.001 0.034,0.006 0.053,0.006 0.951,0 1.724,-0.771 1.724,-1.722 0,-0.106 -0.013,-0.21 -0.031,-0.312 0.135,0.045 0.275,0.073 0.424,0.073 0.756,0 1.371,-0.614 1.371,-1.371 0,-0.366 -0.146,-0.696 -0.379,-0.942 0.393,-0.105 0.721,-0.361 0.92,-0.705 1.143,-0.455 1.955,-1.566 1.955,-2.871 0,-0.192 -0.023,-0.381 -0.059,-0.563 0.959,-0.158 1.69,-0.984 1.69,-1.986 0,-0.215 -0.041,-0.418 -0.104,-0.611 0.066,-0.163 0.115,-0.333 0.15,-0.51 0.832,-0.549 1.383,-1.488 1.383,-2.559 0,-0.277 -0.049,-0.539 -0.117,-0.793 0.164,-0.154 0.301,-0.328 0.416,-0.521 0.842,-0.4 1.426,-1.252 1.426,-2.245 0,-0.374 -0.088,-0.725 -0.233,-1.043 0.729,-0.432 1.222,-1.218 1.222,-2.127 0,-0.499 -0.148,-0.96 -0.402,-1.349 -0.006,-0.036 -0.016,-0.07 -0.023,-0.105 0.621,-0.358 1.045,-1.021 1.045,-1.79 0,-0.187 -0.033,-0.365 -0.08,-0.537 0.705,-0.331 1.197005,-1.042 1.197005,-1.872 0,-0.555 -0.221005,-1.056 -0.576005,-1.428 0.223,-0.394 0.361,-0.842 0.361,-1.327 0,-0.513 -0.152,-0.988 -0.4,-1.397 0.886995,-0.045 1.593995,-0.772 1.593995,-1.67 0,-0.443 -0.17599,-0.843 -0.45499,-1.144 0.631,-0.429 1.04499,-1.153 1.04499,-1.974 0,-0.912 -0.518,-1.695 -1.27,-2.096 0.047,-0.261 0.072,-0.527 0.078,-0.8 0.646,-0.374 1.086,-1.064 1.086,-1.864 0,-0.753 -0.38499,-1.414 -0.96899,-1.801 0.61499,-0.395 1.02499,-1.082 1.02499,-1.867 0,-0.873 -0.509,-1.621 -1.24,-1.983 0.147,-0.349 0.229,-0.733 0.229,-1.137 0,-0.416 -0.09,-0.809 -0.247,-1.167 0.252,-0.314 0.407,-0.706 0.407,-1.139 0,-0.781 -0.489,-1.444 -1.177995,-1.709 0.088,-0.18 0.141,-0.38 0.141,-0.594 0,-0.693 -0.521,-1.26 -1.19,-1.345 0.117,-0.167 0.201,-0.36 0.201,-0.58 0,-0.573 -0.466,-1.037 -1.037,-1.037 -0.097,0 -0.185,0.031 -0.273,0.056 -0.008,-0.081 -0.021,-0.16 -0.047,-0.234 0.012,-0.064 0.039,-0.123 0.039,-0.191 0,-0.58 -0.471,-1.05 -1.051,-1.05 -0.58,0 -1.051,0.47 -1.051,1.05 0,0.025 0.014,0.046 0.014,0.071 -0.133,0.071 -0.226,0.196 -0.258,0.347 -0.916,0.225 -1.598,1.044 -1.598,2.027 0,0.115 0.016,0.226 0.033,0.336 -0.797,0.217 -1.385,0.938 -1.385,1.803 0,0.003 0,0.006 0,0.008 -0.289,-0.1 -0.594,-0.166 -0.918,-0.166 -0.463,0 -0.896,0.124 -1.281,0.323 -0.02,-0.007 -0.037,-0.012 -0.057,-0.018 0.012,-0.053 0.021,-0.106 0.028,-0.16 0.425,-0.584 0.683,-1.297 0.683,-2.073 0,-1.795 -1.34,-3.264 -3.07,-3.498 0.416,-0.439 0.678,-1.029 0.678,-1.683 0,-1.35 -1.094,-2.444 -2.443,-2.444 -0.004,0 -0.008,0.001 -0.012,0.001 -0.254,-0.947 -0.92,-1.724 -1.805,-2.109 0.01,-0.089 0.027,-0.176 0.027,-0.268 0,-0.635 -0.248,-1.208 -0.646,-1.642 0.079,-0.246 0.134,-0.505 0.134,-0.778 0,-1.04 -0.619,-1.931 -1.506,-2.339 -0.014,-0.099 -0.037,-0.194 -0.072,-0.284 0.053,-0.198 0.092,-0.403 0.092,-0.618 0,-0.396 -0.106,-0.764 -0.278,-1.092 0.297,-0.419 0.476,-0.927 0.476,-1.478 0,-0.866 -0.433,-1.627 -1.089,-2.093 0.13,-0.297 0.199,-0.625 0.199,-0.968 0,-1.197 -0.854,-2.192 -1.983,-2.415 0.397,-0.59 0.633,-1.302 0.633,-2.068 0,-1.241 -0.617,-2.333 -1.555,-3.002 0.141,-0.317 0.221,-0.666 0.221,-1.035 0,-0.816 -0.39,-1.534 -0.98,-2.004 0.051,-0.201 0.088,-0.408 0.088,-0.625 0,-1.368 -1.107,-2.477 -2.477,-2.477 -0.131,0 -0.26,0.019 -0.387,0.04 -0.07,-0.107 -0.152,-0.204 -0.24,-0.297 0.029,-0.164 0.051,-0.332 0.051,-0.504 -0.001,-1.521 -1.234,-2.753 -2.754,-2.753 -1.52,0 -2.753,1.232 -2.753,2.753 0,0.312 0.063,0.605 0.158,0.885 -0.621,0.249 -1.061,0.854 -1.061,1.563 0,0.235 0.049,0.46 0.137,0.664 -0.644,0.407 -1.074,1.12 -1.074,1.938 0,0.014 0.004,0.028 0.004,0.042 -0.135,-0.026 -0.274,-0.042 -0.418,-0.042 -1.207,0 -2.186,0.978 -2.186,2.186 0,0.098 0.016,0.192 0.029,0.287 -0.014,0.095 -0.029,0.189 -0.029,0.288 0,0.222 0.045,0.433 0.108,0.634 -0.179,-0.08 -0.375,-0.127 -0.583,-0.127 -0.01,0 -0.018,0.002 -0.026,0.003 -0.008,0 -0.017,-0.003 -0.024,-0.003 -0.156,0 -0.305,0.034 -0.439,0.092 -0.546,0.2 -0.938,0.721 -0.938,1.336 0,0.408 0.172,0.773 0.447,1.034 -0.854,0.19 -1.494,0.95 -1.494,1.862 0,0.091 0.014,0.179 0.026,0.267 -0.046,-0.003 -0.088,-0.014 -0.135,-0.014 -1.326,0 -2.402,1.031 -2.495,2.334 -0.803,0.019 -1.448,0.671 -1.448,1.479 l 0,0 c 0,0.707 0.496,1.296 1.159,1.444 -0.118,0.323 -0.192,0.667 -0.192,1.031 0,0.032 0.009,0.062 0.009,0.094 -0.201,-0.055 -0.408,-0.094 -0.627,-0.094 -1.319,0 -2.388,1.069 -2.388,2.387 0,0.445 0.129,0.856 0.342,1.213 -0.512,0.463 -0.838,1.126 -0.838,1.871 0,0.143 0.02,0.279 0.042,0.416 -0.558,0.444 -0.923,1.117 -0.937,1.883 -0.637,0.196 -1.102,0.782 -1.102,1.482 0,0.115 0.014,0.226 0.038,0.333 -0.794,0.278 -1.368,1.026 -1.368,1.916 0,0.841 0.51,1.563 1.237,1.874 -0.122,0.071 -0.235,0.152 -0.337,0.247 -0.527,0.213 -0.9,0.727 -0.9,1.331 0,0.399 0.164,0.76 0.426,1.021 -0.026,0.154 -0.047,0.31 -0.047,0.471 0,0.093 0.018,0.182 0.028,0.272 -0.902,0.051 -1.62,0.791 -1.62,1.706 0,0.927 0.737,1.678 1.657,1.709 -0.174,0.26 -0.275,0.573 -0.275,0.91 0,0.057 0.011,0.111 0.017,0.167 -0.269,0.36 -0.434,0.803 -0.434,1.287 0,0.472 0.156,0.905 0.412,1.261 -0.654,0.242 -1.123,0.866 -1.123,1.604 0,0.481 0.2,0.915 0.519,1.227 -0.004,0.05 -0.015,0.099 -0.015,0.151 0,0.73 0.419,1.357 1.026,1.673 -0.013,0.062 -0.037,0.12 -0.037,0.186 l 0,0 c 0,0.042 0.018,0.078 0.023,0.117 -0.412,0.356 -0.678,0.876 -0.678,1.463 0,0.356 0.103,0.685 0.27,0.971 -0.101,0.014 -0.197,0.033 -0.292,0.06 -0.318,-0.364 -0.781,-0.6 -1.303,-0.6 -0.037,0 -0.071,0.009 -0.107,0.011 -0.139,-0.041 -0.281,-0.068 -0.429,-0.086 0.002,-0.03 0.01,-0.06 0.01,-0.09 0,-0.353 -0.15,-0.67 -0.387,-0.895 -0.134,-0.47 -0.563,-0.816 -1.076,-0.816 -0.135,0 -0.263,0.027 -0.383,0.071 -0.272,-0.332 -0.666,-0.554 -1.117,-0.601 -0.019,-0.941 -0.785,-1.699 -1.73,-1.699 -0.824,0 -1.509,0.575 -1.687,1.344 -0.127,0.187 -0.203,0.409 -0.225,0.646 -0.375,0.28 -0.62,0.722 -0.62,1.225 0,0.163 0.033,0.316 0.079,0.464 -0.599,0.272 -1.017,0.874 -1.017,1.575 0,0.571 0.28,1.074 0.707,1.39 -0.285,0.395 -0.457,0.877 -0.457,1.401 0,0.885 0.481,1.65 1.192,2.069 -0.06,0.232 -0.103,0.472 -0.103,0.723 0,1.213 0.75,2.246 1.811,2.67 -0.024,0.155 -0.047,0.311 -0.047,0.473 0,1.005 0.493,1.889 1.245,2.441 -0.266,0.281 -0.432,0.658 -0.432,1.076 0,0.867 0.703,1.57 1.57,1.57 0.119,0 0.234,-0.016 0.345,-0.041 0.021,0.017 0.04,0.036 0.062,0.051 -0.043,0.187 -0.072,0.378 -0.072,0.577 0,1.115 0.726,2.052 1.726,2.391 -0.258,0.381 -0.409,0.842 -0.409,1.337 0,0.951 0.561,1.768 1.365,2.15 -0.008,0.082 -0.024,0.16 -0.024,0.244 0,0.72 0.321,1.357 0.822,1.801 -0.086,0.178 -0.139,0.375 -0.139,0.587 0,0.508 0.283,0.944 0.697,1.176 -0.222,0.369 -0.358,0.796 -0.358,1.259 0,0.684 0.284,1.301 0.737,1.743 0.006,0.912 0.5,1.702 1.229,2.142 -0.283,0.313 -0.46,0.724 -0.46,1.176 0,0.971 0.787,1.758 1.756,1.758 0.271,0 0.524,-0.066 0.753,-0.178 0.126,0.42 0.375,0.779 0.711,1.043 0.056,1.168 0.974,2.101 2.133,2.184 -0.385,0.18 -0.654,0.566 -0.654,1.02 0,0.345 0.159,0.647 0.403,0.854 0.156,0.539 0.585,0.957 1.133,1.091 0.278,0.967 1.153,1.676 2.206,1.691 -0.015,0.083 -0.026,0.168 -0.026,0.256 0,0.857 0.694,1.551 1.551,1.551 0.109,0 0.217,-0.012 0.32,-0.031 0.6,1.135 1.781,1.918 3.156,1.918 0.428,0 0.833,-0.088 1.213,-0.225 0.186,0.129 0.389,0.23 0.604,0.311 l 7.441,7.393 c 2.295,11.965 9.697,37.732 30.938995,38.066 0.012,0 0.021,0 0.033,0 1.102,0 2.004,-0.883 2.02,-1.988 0.016,-1.123 -0.874,-2.041 -1.99,-2.058 z M 95.841285,54.889 c 0.824,0 1.492,0.668 1.492,1.493 0,0.824 -0.668,1.492 -1.492,1.492 -0.824,0 -1.492,-0.668 -1.492,-1.492 0,-0.825 0.668,-1.493 1.492,-1.493 z m -5.754,23.752 c 0.826,0 1.494,0.669 1.494,1.492 0,0.826 -0.668,1.494 -1.494,1.494 -0.824,0 -1.492,-0.668 -1.492,-1.494 0,-0.823 0.668,-1.492 1.492,-1.492 z m -43.13,-18.256 c -0.824,0 -1.492,-0.668 -1.492,-1.492 0,-0.824 0.668,-1.492 1.492,-1.492 0.824,0 1.493,0.668 1.493,1.492 0,0.824 -0.668,1.492 -1.493,1.492 z m 7.359,0.65 c -0.824,0 -1.493,-0.668 -1.493,-1.492 0,-0.824 0.668,-1.493 1.493,-1.493 0.825,0 1.492,0.668 1.492,1.493 0.001,0.825 -0.667,1.492 -1.492,1.492 z m 3.664,-20.121 c -0.825,0 -1.493,-0.668 -1.493,-1.492 0,-0.825 0.668,-1.493 1.493,-1.493 0.824,0 1.493,0.668 1.493,1.493 -10e-4,0.824 -0.669,1.492 -1.493,1.492 z m 0.65,32.731 c 0,-0.824 0.668,-1.492 1.492,-1.492 0.824,0 1.493,0.668 1.493,1.492 0,0.824 -0.668,1.492 -1.493,1.492 -0.825,0 -1.492,-0.668 -1.492,-1.492 z m 3.915,14.304 c -0.824,0 -1.492,-0.668 -1.492,-1.492 0,-0.824 0.668,-1.492 1.492,-1.492 0.824,0 1.492,0.668 1.492,1.492 0,0.824 -0.667,1.492 -1.492,1.492 z m 4.851,-61.888 c 0.824,0 1.492,0.668 1.492,1.492 0,0.825 -0.668,1.493 -1.492,1.493 -0.824,0 -1.492,-0.668 -1.492,-1.493 0,-0.824 0.668,-1.492 1.492,-1.492 z m -0.808,41.186 c -0.823,0 -1.491,-0.668 -1.491,-1.493 0,-0.824 0.668,-1.492 1.491,-1.492 0.825,0 1.493,0.668 1.493,1.492 0,0.825 -0.668,1.493 -1.493,1.493 z m 1.984,-12.225 c -0.824,0 -1.492,-0.668 -1.492,-1.493 0,-0.824 0.668,-1.492 1.492,-1.492 0.824,0 1.492,0.668 1.492,1.492 0,0.825 -0.668,1.493 -1.492,1.493 z m 3.755,-41.674 c -0.824,0 -1.492,-0.668 -1.492,-1.493 0,-0.824 0.668,-1.492 1.492,-1.492 0.823,0 1.491,0.668 1.491,1.492 0,0.825 -0.668,1.493 -1.491,1.493 z m 15.091,54.155 c 0,0.825 -0.668,1.493 -1.492,1.493 -0.824,0 -1.492,-0.668 -1.492,-1.493 0,-0.824 0.668,-1.492 1.492,-1.492 0.824,0 1.492,0.667 1.492,1.492 z m -2.602,-17.568 c 0.824,0 1.492,0.668 1.492,1.492 0,0.825 -0.668,1.493 -1.492,1.493 -0.824,0 -1.492,-0.668 -1.492,-1.493 0,-0.824 0.668,-1.492 1.492,-1.492 z m -3.375,-11.83 c 0.824,0 1.492,0.668 1.492,1.492 0,0.824 -0.668,1.492 -1.492,1.492 -0.824,0 -1.492,-0.668 -1.492,-1.492 0,-0.824 0.668,-1.492 1.492,-1.492 z m -1.492,37.149 c 0.824,0 1.492,0.668 1.492,1.492 0,0.823 -0.668,1.491 -1.492,1.491 -0.824,0 -1.492,-0.668 -1.492,-1.491 0,-0.824 0.668,-1.492 1.492,-1.492 z m -3.832,-54.81 c 0.826,0 1.494,0.668 1.494,1.492 0,0.825 -0.668,1.493 -1.494,1.493 -0.824,0 -1.492,-0.668 -1.492,-1.493 0,-0.824 0.668,-1.492 1.492,-1.492 z m -0.584,39.389 c 0.824,0 1.492,0.668 1.492,1.492 0,0.824 -0.668,1.493 -1.492,1.493 -0.824,0 -1.492,-0.668 -1.492,-1.493 0,-0.825 0.668,-1.492 1.492,-1.492 z m -1.551,25.992 c 0,-0.823 0.668,-1.491 1.492,-1.491 0.823,0 1.492,0.668 1.492,1.491 0,0.825 -0.669,1.493 -1.492,1.493 -0.824,0 -1.492,-0.667 -1.492,-1.493 z"
   id="path3981"
   inkscape:connector-curvature="0" />
<text
   x="0"
   y="170.375"
   font-size="7.25"
   font-weight="bold"
   id="text3983"
   style="font-size:7.25px;font-weight:bold;fill:#000000;font-family:'Helvetica Neue, Helvetica, Arial-Unicode, Arial, Sans-serif'">Created by gira Park</text>
<text
   x="0"
   y="177.625"
   font-size="7.25"
   font-weight="bold"
   id="text3985"
   style="font-size:7.25px;font-weight:bold;fill:#000000;font-family:'Helvetica Neue, Helvetica, Arial-Unicode, Arial, Sans-serif'">from the Noun Project</text>
</svg>