<?xml version="1.0" encoding="UTF-8" standalone="no"?>
<svg
   xmlns:dc="http://purl.org/dc/elements/1.1/"
   xmlns:cc="http://creativecommons.org/ns#"
   xmlns:rdf="http://www.w3.org/1999/02/22-rdf-syntax-ns#"
   xmlns:svg="http://www.w3.org/2000/svg"
   xmlns="http://www.w3.org/2000/svg"
   xmlns:sodipodi="http://sodipodi.sourceforge.net/DTD/sodipodi-0.dtd"
   xmlns:inkscape="http://www.inkscape.org/namespaces/inkscape"
   version="1.1"
   id="Layer_1"
   x="0px"
   y="0px"
   viewBox="5.0 -10.0 100.0 135.0"
   enable-background="new 0 0 100 100"
   xml:space="preserve"
   height="100px"
   width="100px"
   inkscape:version="0.48.5 r10040"
   sodipodi:docname="noun_64684_cc.svg"><metadata
   id="metadata5241"><rdf:RDF><cc:Work
       rdf:about=""><dc:format>image/svg+xml</dc:format><dc:type
         rdf:resource="http://purl.org/dc/dcmitype/StillImage" /><dc:title></dc:title></cc:Work></rdf:RDF></metadata><defs
   id="defs5239" /><sodipodi:namedview
   pagecolor="#ffffff"
   bordercolor="#666666"
   borderopacity="1"
   objecttolerance="10"
   gridtolerance="10"
   guidetolerance="10"
   inkscape:pageopacity="0"
   inkscape:pageshadow="2"
   inkscape:window-width="640"
   inkscape:window-height="480"
   id="namedview5237"
   showgrid="false"
   inkscape:zoom="2.36"
   inkscape:cx="50"
   inkscape:cy="50"
   inkscape:window-x="0"
   inkscape:window-y="0"
   inkscape:window-maximized="0"
   inkscape:current-layer="Layer_1" />
<g
   id="g5203">
	<g
   id="g5205">
		<path
   d="M74.9,75.9L72,73c-1.2,6-6.5,10.5-12.9,10.5c-7.3,0-13.2-5.9-13.2-13.2c0-0.7,0.1-1.4,0.2-2c-0.6,0.1-1.3,0.2-1.9,0.2    c-7.3,0-13.2-5.9-13.2-13.2c0-0.8,0.1-1.6,0.2-2.3c-0.5,0.1-1,0.1-1.5,0.1c-7.3,0-13.2-5.9-13.2-13.2c0-6.1,4.1-11.2,9.7-12.7    L11,12c0,0-27.1,98.2,76,76L74.9,75.9z"
   id="path5207" />
		<g
   id="g5209">
			<path
   d="M26.2,27.2l0.3,0.3L16.3,11.3C15.1,9.5,12,9.4,11,11.6c-0.8,2.3-0.8,3.8-1.2,5.6l9.6,14.4C21.1,29.5,23.5,27.9,26.2,27.2     z"
   id="path5211" />
			<path
   d="M87.8,82.8L72,73.2c-0.6,2.7-2,5.1-4.1,7L80.7,88c-1.2,1.6,4.5,0.5,6.3,0C89,87.7,90.3,84.6,87.8,82.8z"
   id="path5213" />
		</g>
	</g>
	<g
   id="g5215">
		<path
   fill="none"
   d="M72.3,70.3c0-7.3-5.9-13.2-13.2-13.2c-0.7,0-1.3,0.1-1.9,0.2c0.1-0.7,0.2-1.3,0.2-2c0-7.3-5.9-13.2-13.2-13.2    c-0.5,0-1,0-1.5,0.1c0.1-0.8,0.2-1.5,0.2-2.3c0-7.3-5.9-13.2-13.2-13.2c-7.3,0-13.2,5.9-13.2,13.2s5.9,13.2,13.2,13.2    c0.5,0,1,0,1.5-0.1c-0.1,0.8-0.2,1.5-0.2,2.3c0,7.3,5.9,13.2,13.2,13.2c0.7,0,1.3-0.1,1.9-0.2c-0.1,0.7-0.2,1.3-0.2,2    c0,7.3,5.9,13.2,13.2,13.2S72.3,77.6,72.3,70.3z"
   id="path5217" />
		<path
   d="M61.9,52.6c-1.1-7.5-7-13.6-14.4-15c-1.1-8.9-8.7-15.7-17.8-15.7c-9.9,0-17.9,8-17.9,17.9c0,8.8,6.3,16.1,14.6,17.6    c1,7.9,7.2,14.3,15,15.5c1.3,8.6,8.8,15.3,17.7,15.3c9.9,0,17.9-8,17.9-17.9C77,61.4,70.5,54,61.9,52.6z M45.9,70.3    c0-0.7,0.1-1.4,0.2-2c-0.6,0.1-1.3,0.2-1.9,0.2c-7.3,0-13.2-5.9-13.2-13.2c0-0.8,0.1-1.6,0.2-2.3c-0.5,0.1-1,0.1-1.5,0.1    c-7.3,0-13.2-5.9-13.2-13.2s5.9-13.2,13.2-13.2c7.3,0,13.2,5.9,13.2,13.2c0,0.8-0.1,1.6-0.2,2.3c0.5-0.1,1-0.1,1.5-0.1    c7.3,0,13.2,5.9,13.2,13.2c0,0.7-0.1,1.4-0.2,2c0.6-0.1,1.3-0.2,1.9-0.2c7.3,0,13.2,5.9,13.2,13.2c0,7.3-5.9,13.2-13.2,13.2    S45.9,77.6,45.9,70.3z"
   id="path5219" />
	</g>
</g>
<g
   id="g5221">
	<path
   d="M53.8,67.2c-0.8,0-1.6-0.4-2-1.1c-0.7-1.1-0.3-2.6,0.8-3.3c6.9-4.3,4.4-10.9,4.1-11.6c-0.5-1.2,0-2.6,1.2-3.1   c1.2-0.5,2.6,0,3.1,1.2c1.7,3.8,2.5,12.3-5.9,17.6C54.6,67.1,54.2,67.2,53.8,67.2z"
   id="path5223" />
</g>
<path
   fill="#000000"
   stroke="#77C374"
   stroke-width="11.047"
   stroke-miterlimit="10"
   d="M47.7,67.6"
   id="path5225" />
<path
   fill="#000000"
   stroke="#77C374"
   stroke-width="11.047"
   stroke-miterlimit="10"
   d="M63.9,51.5"
   id="path5227" />
<g
   id="g5229">
	<path
   d="M29.4,62.4c-1,0-1.9-0.6-2.2-1.5c-1.4-3.8-2-12.4,6-17.4c1.1-0.7,2.6-0.4,3.3,0.7c0.7,1.1,0.4,2.6-0.7,3.3   c-6.8,4.3-4.2,11.5-4.1,11.8c0.5,1.2-0.2,2.6-1.4,3.1C29.9,62.3,29.7,62.4,29.4,62.4z"
   id="path5231" />
</g>
<text
   x="0.0"
   y="117.5"
   font-size="5.0"
   font-weight="bold"
   font-family="Helvetica Neue, Helvetica, Arial-Unicode, Arial, Sans-serif"
   fill="#000000"
   id="text5233">Created by Kristin Phillips</text>
<text
   x="0.0"
   y="122.5"
   font-size="5.0"
   font-weight="bold"
   font-family="Helvetica Neue, Helvetica, Arial-Unicode, Arial, Sans-serif"
   fill="#000000"
   id="text5235">from the Noun Project</text>
</svg>