<?xml version="1.0" encoding="UTF-8" standalone="no"?>
<svg
   xmlns:dc="http://purl.org/dc/elements/1.1/"
   xmlns:cc="http://creativecommons.org/ns#"
   xmlns:rdf="http://www.w3.org/1999/02/22-rdf-syntax-ns#"
   xmlns:svg="http://www.w3.org/2000/svg"
   xmlns="http://www.w3.org/2000/svg"
   xmlns:sodipodi="http://sodipodi.sourceforge.net/DTD/sodipodi-0.dtd"
   xmlns:inkscape="http://www.inkscape.org/namespaces/inkscape"
   version="1.1"
   id="Your_Icon"
   x="0px"
   y="0px"
   width="100px"
   height="100px"
   viewBox="5.0 -10.0 100.0 135.0"
   enable-background="new 0 0 100 100"
   xml:space="preserve"
   inkscape:version="0.48.5 r10040"
   sodipodi:docname="noun_62810_cc.svg"><metadata
   id="metadata5159"><rdf:RDF><cc:Work
       rdf:about=""><dc:format>image/svg+xml</dc:format><dc:type
         rdf:resource="http://purl.org/dc/dcmitype/StillImage" /><dc:title></dc:title></cc:Work></rdf:RDF></metadata><defs
   id="defs5157" /><sodipodi:namedview
   pagecolor="#ffffff"
   bordercolor="#666666"
   borderopacity="1"
   objecttolerance="10"
   gridtolerance="10"
   guidetolerance="10"
   inkscape:pageopacity="0"
   inkscape:pageshadow="2"
   inkscape:window-width="640"
   inkscape:window-height="480"
   id="namedview5155"
   showgrid="false"
   inkscape:zoom="2.36"
   inkscape:cx="50"
   inkscape:cy="50"
   inkscape:window-x="0"
   inkscape:window-y="0"
   inkscape:window-maximized="0"
   inkscape:current-layer="Your_Icon" />
<path
   fill="none"
   stroke="#000000"
   stroke-width="4"
   stroke-miterlimit="10"
   d="M89.431,30.521  c-0.646-1.314-1.576-2.408-2.489-3.703c-0.989-1.404-2.063-2.596-3.493-3.56c-5.113-3.447-11.479-6.043-17.708-6.081  c-1.729-0.011-3.536,0.139-5.232,0.484c-3.969,0.809-7.338,2.777-10.574,5.153c-2.443,1.794-5.523,1.92-8.227,3.112  c-2.783,1.228-4.973,3.439-7.326,5.305c-2.219,1.759-4.712,3.313-6.796,5.231c-1.929,1.775-3.864,3.543-5.79,5.322  c-2.355,2.175-5.901,4.167-7.538,6.94c-0.598,1.014-0.797,2.734-1.227,3.866c-2.025,5.335-4.003,9.525-2.343,15.339  c1.485,5.203,4.055,9.633,8.165,13.169c1.205,1.036,2.521,1.944,3.919,2.698c4.38,2.361,9.533,3.093,14.399,2.065  c3.765-0.795,7.594-3.313,11.252-3.835c3.423-0.49,6.696-1.747,10.081-2.435c2.053-0.417,4.121-1.31,6.114-1.958  c1.58-0.515,3.27-1.824,4.596-2.81c1.265-0.941,2.448-1.989,3.668-2.988c2.155-1.764,4.271-3.557,6.369-5.389  c0.402-0.353,0.797-0.762,1.229-1.078c1.314-0.964,2.454-2.362,3.445-3.974l1.052-1.918c2.389-4.81,3.565-10.121,4.455-15.384  c0.268-1.582,0.5-3.169,0.686-4.763c0.262-2.254,0.438-4.571-0.007-6.813C89.965,31.778,89.728,31.126,89.431,30.521z"
   id="path5119" />
<path
   d="M25.671,76.294c0,0,2.944,2.886,6.547,3.021C32.218,79.315,25.206,81.271,25.671,76.294z"
   id="path5121" />
<path
   d="M28.671,61.294c0,0,2.944,2.886,6.547,3.021C35.218,64.315,28.206,66.271,28.671,61.294z"
   id="path5123" />
<path
   d="M38.671,73.294c0,0,2.944,2.886,6.547,3.021C45.218,76.315,38.206,78.271,38.671,73.294z"
   id="path5125" />
<path
   d="M69.672,38.294c0,0,2.943,2.886,6.547,3.021C76.219,41.315,69.206,43.271,69.672,38.294z"
   id="path5127" />
<path
   d="M38.672,48.294c0,0,2.943,2.886,6.547,3.021C45.219,51.315,38.206,53.271,38.672,48.294z"
   id="path5129" />
<path
   d="M33.29,76.05c0,0,4.494,4.404,9.994,4.612C43.283,80.662,32.58,83.647,33.29,76.05z"
   id="path5131" />
<path
   d="M46,73.614c0,0,3.657,3.584,8.134,3.753C54.134,77.367,45.422,79.797,46,73.614z"
   id="path5133" />
<path
   d="M47.32,66.031c0,0,4.75,4.655,10.565,4.875C57.885,70.906,46.57,74.063,47.32,66.031z"
   id="path5135" />
<path
   d="M54.32,52.031c0,0,4.75,4.655,10.564,4.875C64.885,56.906,53.57,60.063,54.32,52.031z"
   id="path5137" />
<path
   d="M55.465,74.254c0,0,5.078,0.657,8.753-1.905C64.218,72.349,58.728,79.537,55.465,74.254z"
   id="path5139" />
<path
   d="M59.68,67.829c0,0,3.312,2.109,6.696,1.527C66.376,69.356,60.225,72.559,59.68,67.829z"
   id="path5141" />
<path
   d="M19.663,70c0,0,1.227,4.973,4.946,7.47C24.608,77.47,15.92,74.955,19.663,70z"
   id="path5143" />
<path
   d="M16.575,62.663c0,0-0.707,3.354,0.809,5.941C17.384,68.604,12.878,64.562,16.575,62.663z"
   id="path5145" />
<path
   d="M24.744,70.328c0,0,3.104,9.515,7.47,3.348C32.214,73.676,27.943,74.547,24.744,70.328z"
   id="path5147" />
<path
   d="M64.648,65.929c0,0,8.099,5.878,8.012-1.678C72.66,64.251,69.714,67.465,64.648,65.929z"
   id="path5149" />
<text
   x="0.0"
   y="117.5"
   font-size="5.0"
   font-weight="bold"
   font-family="Helvetica Neue, Helvetica, Arial-Unicode, Arial, Sans-serif"
   fill="#000000"
   id="text5151">Created by Yi Chen</text>
<text
   x="0.0"
   y="122.5"
   font-size="5.0"
   font-weight="bold"
   font-family="Helvetica Neue, Helvetica, Arial-Unicode, Arial, Sans-serif"
   fill="#000000"
   id="text5153">from the Noun Project</text>
</svg>